if (_typeface_js && _typeface_js.loadFace) _typeface_js.loadFace({"glyphs":{"¦":{"x_min":297,"x_max":399,"ha":694,"o":"m 399 277 l 399 -237 l 297 -237 l 297 277 l 399 277 m 399 971 l 399 457 l 297 457 l 297 971 l 399 971 "},"Ž":{"x_min":24,"x_max":935,"ha":958,"o":"m 24 0 l 24 139 l 745 875 l 69 875 l 69 1003 l 923 1003 l 923 862 l 210 139 l 935 139 l 935 0 l 24 0 m 479 1182 l 596 1311 l 740 1311 l 554 1104 l 403 1104 l 218 1311 l 361 1311 l 479 1182 "},"Á":{"x_min":-8,"x_max":1063,"ha":1065,"o":"m 335 416 l 729 416 l 537 844 l 335 416 m -8 0 l 468 1003 l 616 1003 l 1063 0 l 915 0 l 787 286 l 275 286 l 141 0 l -8 0 m 446 1104 l 569 1311 l 739 1311 l 544 1104 l 446 1104 "},"Î":{"x_min":-65,"x_max":457,"ha":392,"o":"m 125 0 l 125 1003 l 267 1003 l 267 0 l 125 0 m 196 1233 l 78 1104 l -65 1104 l 120 1311 l 271 1311 l 457 1104 l 313 1104 l 196 1233 "},"e":{"x_min":58,"x_max":872,"ha":932,"o":"m 204 440 l 728 440 q 642 589 712 535 q 466 643 573 643 q 290 589 360 643 q 204 440 221 535 m 200 344 l 200 338 q 274 166 200 233 q 466 100 348 100 q 617 134 554 100 q 702 231 679 169 l 860 231 q 716 41 819 109 q 466 -26 613 -26 q 169 81 280 -26 q 58 370 58 189 q 169 659 58 551 q 466 768 280 768 q 764 662 656 768 q 872 370 872 556 l 872 344 l 200 344 "},"»":{"x_min":103,"x_max":676,"ha":772,"o":"m 353 289 l 103 98 l 103 245 l 265 370 l 103 496 l 103 644 l 353 452 l 353 289 m 676 289 l 426 98 l 426 245 l 589 370 l 426 496 l 426 644 l 676 452 l 676 289 "},"∆":{"x_min":-4,"x_max":933,"ha":929,"o":"m 463 855 l 180 121 l 747 121 l 463 855 m 388 999 l 540 999 l 933 0 l -4 0 l 388 999 "},"ò":{"x_min":50,"x_max":881,"ha":932,"o":"m 190 371 q 264 172 190 245 q 465 100 338 100 q 667 172 593 100 q 741 371 741 245 q 667 570 741 497 q 465 643 593 643 q 264 569 338 643 q 190 371 190 496 m 50 371 q 163 659 50 551 q 466 768 276 768 q 768 659 655 768 q 881 371 881 551 q 768 82 881 190 q 466 -26 655 -26 q 163 82 276 -26 q 50 371 50 190 m 463 843 l 269 1050 l 438 1050 l 562 843 l 463 843 "},"^":{"x_min":285,"x_max":1103,"ha":1389,"o":"m 757 989 l 1103 611 l 980 611 l 694 896 l 407 611 l 285 611 l 630 989 l 757 989 "},"«":{"x_min":97,"x_max":669,"ha":772,"o":"m 419 452 l 669 644 l 669 496 l 505 370 l 669 245 l 669 98 l 419 289 l 419 452 m 97 452 l 347 644 l 347 496 l 184 370 l 347 245 l 347 98 l 97 289 l 97 452 "},"∙":{"x_min":129,"x_max":334,"ha":463,"o":"m 129 489 q 159 560 129 531 q 232 590 189 590 q 304 560 274 590 q 334 489 334 531 q 304 416 334 446 q 232 386 274 386 q 159 416 189 386 q 129 489 129 446 "},"í":{"x_min":78,"x_max":371,"ha":350,"o":"m 109 0 l 109 743 l 243 743 l 243 0 l 109 0 m 78 843 l 201 1050 l 371 1050 l 176 843 l 78 843 "},"ˆ":{"x_min":86,"x_max":608,"ha":694,"o":"m 347 972 l 229 843 l 86 843 l 271 1050 l 422 1050 l 608 843 l 464 843 l 347 972 "},"µ":{"x_min":-77,"x_max":723,"ha":781,"o":"m 260 726 l 173 318 q 166 274 168 297 q 163 228 163 252 q 199 124 163 161 q 299 88 234 88 q 440 150 388 88 q 524 362 492 213 l 602 726 l 723 726 l 617 229 q 614 215 616 225 q 602 139 602 156 q 613 103 602 114 q 651 93 624 93 q 663 93 659 93 q 672 94 668 94 l 651 -1 q 617 -6 635 -5 q 578 -8 600 -8 q 512 10 535 -8 q 477 78 489 30 q 401 11 447 33 q 294 -10 355 -10 q 197 8 238 -10 q 120 68 155 27 l 46 -290 l -77 -290 l 138 726 l 260 726 "},"č":{"x_min":50,"x_max":829,"ha":890,"o":"m 683 497 q 605 604 662 565 q 466 643 547 643 q 264 569 338 643 q 190 371 190 496 q 263 174 190 248 q 456 100 336 100 q 610 148 548 100 q 687 278 673 196 l 829 278 q 703 55 804 136 q 451 -26 602 -26 q 161 84 273 -26 q 50 371 50 194 q 161 657 50 547 q 454 768 273 768 q 699 694 599 768 q 823 497 799 621 l 683 497 m 468 921 l 585 1050 l 729 1050 l 543 843 l 392 843 l 207 1050 l 350 1050 l 468 921 "},"’":{"x_min":121,"x_max":288,"ha":418,"o":"m 121 836 l 121 1003 l 288 1003 l 288 836 q 250 690 288 741 q 121 606 213 639 l 121 695 q 183 740 164 712 q 203 815 203 769 q 202 825 203 817 q 201 836 201 832 l 121 836 "},"-":{"x_min":66,"x_max":576,"ha":643,"o":"m 66 310 l 66 432 l 576 432 l 576 310 l 66 310 "},"Q":{"x_min":60,"x_max":1159,"ha":1218,"o":"m 765 129 l 660 214 l 737 313 l 885 193 q 979 321 946 241 q 1012 501 1012 401 q 905 790 1012 686 q 608 895 798 895 q 313 790 419 895 q 207 501 207 686 q 314 210 207 313 q 618 108 422 108 q 701 113 665 108 q 765 129 737 118 m 884 31 q 766 -12 831 1 q 608 -26 701 -26 q 207 116 355 -26 q 60 501 60 258 q 208 886 60 743 q 610 1029 356 1029 q 1011 886 863 1029 q 1159 501 1159 743 q 1116 274 1159 377 q 995 103 1074 172 l 1131 -5 l 1051 -107 l 884 31 "},"M":{"x_min":115,"x_max":1325,"ha":1440,"o":"m 115 0 l 115 1003 l 328 1003 l 716 128 l 1113 1003 l 1325 1003 l 1325 0 l 1186 0 l 1194 898 l 788 0 l 644 0 l 245 898 l 254 0 l 115 0 "},"œ":{"x_min":50,"x_max":1550,"ha":1609,"o":"m 876 344 l 876 338 q 949 166 876 232 q 1141 100 1023 100 q 1291 134 1229 100 q 1377 231 1354 169 l 1534 231 q 1390 41 1494 109 q 1141 -26 1287 -26 q 940 13 1026 -26 q 806 128 854 53 q 668 13 754 52 q 466 -26 582 -26 q 163 82 276 -26 q 50 371 50 190 q 163 659 50 551 q 466 768 276 768 q 667 730 583 768 q 808 613 751 692 q 944 729 860 690 q 1141 768 1028 768 q 1300 744 1230 768 q 1423 671 1369 720 q 1516 543 1483 617 q 1550 389 1550 470 q 1547 350 1550 377 q 1546 344 1547 346 l 876 344 m 880 440 l 1402 440 q 1316 589 1386 535 q 1141 643 1247 643 q 966 589 1035 643 q 880 440 897 535 m 190 371 q 264 172 190 245 q 466 100 338 100 q 667 172 593 100 q 742 371 742 245 q 667 570 742 497 q 466 643 593 643 q 264 569 338 643 q 190 371 190 496 "},"{":{"x_min":114,"x_max":588,"ha":694,"o":"m 588 900 l 560 900 q 450 869 478 900 q 423 745 423 839 l 423 581 q 392 426 423 472 q 286 359 362 380 q 393 294 363 341 q 423 139 423 248 l 423 -24 q 451 -148 423 -119 q 561 -178 479 -178 l 588 -178 l 588 -280 l 558 -280 q 443 -272 485 -280 q 373 -246 402 -264 q 321 -180 336 -223 q 306 -36 306 -137 l 306 128 q 269 270 306 229 q 143 311 232 311 q 128 310 138 311 q 114 310 118 310 l 114 412 q 129 411 119 412 q 144 410 139 410 q 269 451 232 410 q 306 592 306 492 l 306 758 q 321 901 306 858 q 373 966 336 943 q 447 993 404 985 q 562 1002 490 1002 l 588 1002 l 588 900 "},"¼":{"x_min":84,"x_max":1429,"ha":1463,"o":"m 1235 0 l 1235 137 l 914 137 l 914 210 l 1242 554 l 1325 554 l 1325 205 l 1429 205 l 1429 137 l 1325 137 l 1325 0 l 1235 0 m 1000 205 l 1235 205 l 1240 470 l 1000 205 m 292 -26 l 1063 1003 l 1171 1003 l 400 -26 l 292 -26 m 273 429 l 273 823 l 84 823 l 84 889 l 98 889 q 240 913 193 889 q 293 990 287 937 l 359 990 l 359 429 l 273 429 "},"#":{"x_min":60,"x_max":1009,"ha":1068,"o":"m 657 582 l 481 582 l 418 402 l 595 402 l 657 582 m 627 989 l 517 682 l 690 682 l 802 989 l 913 989 l 804 682 l 1009 682 l 974 582 l 768 582 l 705 404 l 924 404 l 889 304 l 671 304 l 561 -3 l 449 -3 l 558 304 l 383 304 l 273 -3 l 161 -3 l 269 304 l 60 304 l 95 404 l 306 404 l 368 582 l 144 582 l 179 682 l 404 682 l 514 989 l 627 989 "},"Ê":{"x_min":115,"x_max":922,"ha":987,"o":"m 115 0 l 115 1003 l 912 1003 l 912 875 l 257 875 l 257 579 l 872 579 l 872 447 l 257 447 l 257 135 l 922 135 l 922 0 l 115 0 m 530 1233 l 412 1104 l 269 1104 l 454 1311 l 605 1311 l 791 1104 l 647 1104 l 530 1233 "},")":{"x_min":4,"x_max":370,"ha":450,"o":"m 4 -264 q 167 39 113 -116 q 221 369 221 195 q 167 698 221 542 q 4 1003 113 855 l 107 1003 q 306 685 242 838 q 370 369 370 532 q 306 52 370 206 q 107 -264 242 -100 l 4 -264 "},"Å":{"x_min":-8,"x_max":1063,"ha":1065,"o":"m 472 1187 q 492 1137 472 1156 q 545 1119 512 1119 q 600 1138 578 1119 q 622 1187 622 1157 q 601 1236 622 1218 q 545 1255 580 1255 q 491 1236 511 1255 q 472 1187 472 1218 m 386 1187 q 429 1288 386 1251 q 547 1326 472 1326 q 665 1289 622 1326 q 708 1187 708 1252 q 665 1084 708 1121 q 547 1048 622 1048 q 429 1084 472 1048 q 386 1187 386 1121 m 335 416 l 729 416 l 536 844 l 335 416 m -8 0 l 467 1003 l 613 1003 l 1063 0 l 915 0 l 787 286 l 275 286 l 141 0 l -8 0 "},"¸":{"x_min":170,"x_max":527,"ha":694,"o":"m 170 -273 l 196 -215 q 270 -233 238 -227 q 326 -240 302 -240 q 388 -226 367 -240 q 410 -187 410 -213 q 394 -150 410 -163 q 350 -138 379 -138 q 322 -140 336 -138 q 296 -148 309 -143 l 266 -125 l 335 0 l 393 0 l 345 -86 q 372 -79 359 -81 q 396 -77 385 -77 q 492 -107 457 -77 q 527 -189 527 -137 q 485 -278 527 -247 q 364 -309 444 -309 q 267 -300 315 -309 q 170 -273 219 -291 "},"a":{"x_min":69,"x_max":905,"ha":932,"o":"m 669 115 q 538 16 618 50 q 356 -18 458 -18 q 144 40 219 -18 q 69 205 69 99 q 95 308 69 263 q 176 385 122 353 q 252 412 202 402 q 414 436 302 423 q 471 442 434 438 q 662 538 662 460 q 616 624 662 597 q 469 651 571 651 q 300 616 353 651 q 242 505 247 581 l 102 504 q 198 701 108 635 q 459 768 288 768 q 723 711 646 768 q 800 519 800 655 l 800 220 q 814 134 800 158 q 866 111 829 111 q 884 112 874 111 q 905 115 894 113 l 905 6 q 852 1 878 3 q 801 0 825 0 q 710 27 742 0 q 669 115 679 54 m 665 381 q 583 352 637 365 q 439 330 529 340 q 255 288 294 313 q 216 210 216 263 q 259 126 216 156 q 378 96 302 96 q 583 146 502 96 q 665 270 665 197 l 665 381 "},"=":{"x_min":172,"x_max":984,"ha":1157,"o":"m 984 326 l 984 232 l 172 232 l 172 326 l 984 326 m 984 596 l 984 501 l 172 501 l 172 596 l 984 596 "},"˚":{"x_min":186,"x_max":508,"ha":694,"o":"m 272 970 q 292 919 272 938 q 345 901 312 901 q 400 920 379 901 q 422 970 422 939 q 401 1018 422 1000 q 345 1037 380 1037 q 291 1018 311 1037 q 272 970 272 1000 m 186 969 q 228 1070 186 1033 q 347 1108 271 1108 q 465 1070 422 1108 q 508 969 508 1033 q 465 867 508 904 q 347 830 422 830 q 228 867 271 830 q 186 969 186 904 "},"ú":{"x_min":98,"x_max":820,"ha":917,"o":"m 820 743 l 820 0 l 687 0 l 687 125 q 550 15 625 51 q 380 -21 475 -21 q 250 1 307 -21 q 156 65 193 23 q 111 152 125 101 q 98 316 98 203 l 98 743 l 233 743 l 233 311 q 274 143 233 193 q 410 94 315 94 q 609 168 532 94 q 686 365 686 243 l 686 743 l 820 743 m 361 843 l 484 1050 l 654 1050 l 459 843 l 361 843 "},"¯":{"x_min":81,"x_max":614,"ha":694,"o":"m 614 895 l 81 895 l 81 999 l 614 999 l 614 895 "},"Z":{"x_min":24,"x_max":935,"ha":958,"o":"m 24 0 l 24 139 l 745 875 l 69 875 l 69 1003 l 923 1003 l 923 862 l 210 139 l 935 139 l 935 0 l 24 0 "},"u":{"x_min":98,"x_max":820,"ha":917,"o":"m 820 743 l 820 0 l 687 0 l 687 125 q 550 15 625 51 q 380 -21 475 -21 q 250 1 307 -21 q 156 65 193 23 q 111 152 125 101 q 98 316 98 203 l 98 743 l 233 743 l 233 311 q 274 143 233 193 q 410 94 315 94 q 609 168 532 94 q 686 365 686 243 l 686 743 l 820 743 "},"k":{"x_min":109,"x_max":860,"ha":823,"o":"m 109 0 l 109 1003 l 243 1003 l 243 417 l 633 743 l 834 743 l 481 459 l 860 0 l 677 0 l 380 377 l 243 267 l 243 0 l 109 0 "},"Ù":{"x_min":113,"x_max":999,"ha":1117,"o":"m 999 1003 l 999 373 q 886 75 999 177 q 555 -26 773 -26 q 225 75 338 -26 q 113 373 113 177 l 113 1003 l 255 1003 l 255 433 q 328 188 255 267 q 555 110 401 110 q 783 188 710 110 q 857 433 857 266 l 857 1003 l 999 1003 m 555 1104 l 361 1311 l 530 1311 l 654 1104 l 555 1104 "},"¢":{"x_min":50,"x_max":829,"ha":926,"o":"m 417 126 l 417 665 q 249 578 309 649 q 190 395 190 508 q 248 213 190 283 q 417 126 307 143 m 829 302 q 716 90 805 169 q 486 1 626 11 l 486 -136 l 417 -136 l 417 1 q 151 117 253 9 q 50 395 50 226 q 149 670 50 563 q 417 791 248 777 l 417 919 l 486 919 l 486 793 q 708 715 618 786 q 823 522 797 643 l 683 522 q 612 624 662 587 q 486 666 562 660 l 486 126 q 622 182 569 136 q 687 302 675 228 l 829 302 "},"Ş":{"x_min":70,"x_max":961,"ha":1029,"o":"m 70 340 l 220 340 q 301 163 224 220 q 534 106 379 106 q 739 150 667 106 q 812 275 812 194 q 772 367 812 334 q 640 417 732 400 l 392 461 q 171 552 241 488 q 102 726 102 616 q 211 950 102 871 q 525 1029 321 1029 q 819 946 716 1029 q 925 711 922 864 l 783 711 q 710 852 775 806 q 514 898 644 898 q 319 857 386 898 q 252 738 252 816 q 290 652 252 682 q 429 602 328 622 l 649 559 q 892 465 823 526 q 961 287 961 403 q 847 56 961 138 q 526 -26 733 -26 q 187 66 302 -26 q 70 340 72 158 m 338 -273 l 364 -215 q 438 -233 406 -227 q 494 -240 470 -240 q 556 -226 535 -240 q 578 -187 578 -213 q 562 -150 578 -163 q 518 -138 547 -138 q 490 -140 504 -138 q 464 -148 477 -143 l 434 -125 l 503 0 l 561 0 l 513 -86 q 540 -79 527 -81 q 564 -77 553 -77 q 660 -107 625 -77 q 695 -189 695 -137 q 653 -278 695 -247 q 532 -309 612 -309 q 435 -300 483 -309 q 338 -273 387 -291 "},"é":{"x_min":58,"x_max":872,"ha":932,"o":"m 204 440 l 728 440 q 642 589 712 535 q 466 643 573 643 q 290 589 360 643 q 204 440 221 535 m 200 344 l 200 338 q 274 166 200 233 q 466 100 348 100 q 617 134 554 100 q 702 231 679 169 l 860 231 q 716 41 819 109 q 466 -26 613 -26 q 169 81 280 -26 q 58 370 58 189 q 169 659 58 551 q 466 768 280 768 q 764 662 656 768 q 872 370 872 556 l 872 344 l 200 344 m 390 843 l 513 1050 l 683 1050 l 488 843 l 390 843 "},"B":{"x_min":115,"x_max":1015,"ha":1079,"o":"m 646 456 l 257 456 l 257 136 l 626 136 q 808 172 752 136 q 865 287 865 208 q 812 415 865 375 q 646 456 760 456 m 644 876 l 257 876 l 257 586 l 613 586 q 786 619 736 586 q 836 731 836 653 q 790 841 836 807 q 644 876 745 876 m 673 1003 q 898 937 819 1003 q 978 750 978 871 q 938 615 978 670 q 819 529 899 560 q 964 449 914 510 q 1015 291 1015 388 q 928 71 1015 143 q 659 0 841 0 l 115 0 l 115 1003 l 673 1003 "},"…":{"x_min":147,"x_max":1241,"ha":1389,"o":"m 147 0 l 147 167 l 315 167 l 315 0 l 147 0 m 610 0 l 610 167 l 778 167 l 778 0 l 610 0 m 1073 0 l 1073 167 l 1241 167 l 1241 0 l 1073 0 "},"H":{"x_min":115,"x_max":1010,"ha":1125,"o":"m 115 0 l 115 1003 l 257 1003 l 257 599 l 868 599 l 868 1003 l 1010 1003 l 1010 0 l 868 0 l 868 467 l 257 467 l 257 0 l 115 0 "},"î":{"x_min":-86,"x_max":436,"ha":350,"o":"m 109 0 l 109 743 l 243 743 l 243 0 l 109 0 m 175 972 l 57 843 l -86 843 l 99 1050 l 250 1050 l 436 843 l 292 843 l 175 972 "},"−":{"x_min":172,"x_max":984,"ha":1157,"o":"m 984 463 l 984 367 l 172 367 l 172 463 l 984 463 "},"≠":{"x_min":172,"x_max":984,"ha":1157,"o":"m 889 754 l 763 595 l 984 595 l 984 503 l 702 503 l 563 325 l 984 325 l 984 233 l 503 233 l 334 18 l 263 75 l 388 233 l 172 233 l 172 325 l 448 325 l 586 503 l 172 503 l 172 595 l 647 595 l 818 809 l 889 754 "},"¥":{"x_min":-39,"x_max":964,"ha":926,"o":"m 964 978 l 722 659 l 907 659 l 907 588 l 666 588 l 586 482 l 907 482 l 907 411 l 529 411 l 529 0 l 400 0 l 400 411 l 25 411 l 25 482 l 343 482 l 261 588 l 25 588 l 25 659 l 206 659 l -39 978 l 128 978 l 466 521 l 805 978 l 964 978 "},"U":{"x_min":113,"x_max":999,"ha":1117,"o":"m 999 1003 l 999 373 q 886 75 999 177 q 555 -26 773 -26 q 225 75 338 -26 q 113 373 113 177 l 113 1003 l 255 1003 l 255 433 q 328 188 255 267 q 555 110 401 110 q 783 188 710 110 q 857 433 857 266 l 857 1003 l 999 1003 "},"Ñ":{"x_min":115,"x_max":1076,"ha":1193,"o":"m 115 0 l 115 1003 l 306 1003 l 938 147 l 938 1003 l 1076 1003 l 1076 0 l 884 0 l 254 855 l 254 0 l 115 0 m 331 1123 q 374 1246 333 1200 q 479 1293 415 1293 q 523 1286 499 1293 q 575 1269 547 1280 l 639 1243 q 653 1236 643 1240 q 714 1218 696 1218 q 755 1235 740 1218 q 776 1290 770 1253 l 863 1290 q 819 1168 860 1214 q 715 1122 779 1122 q 670 1127 694 1122 q 618 1145 646 1133 l 556 1171 q 536 1180 548 1175 q 480 1197 497 1197 q 438 1178 454 1197 q 416 1123 423 1160 l 331 1123 "},"F":{"x_min":115,"x_max":880,"ha":896,"o":"m 115 0 l 115 1003 l 880 1003 l 880 875 l 257 875 l 257 579 l 811 579 l 811 443 l 257 443 l 257 0 l 115 0 "},"*":{"x_min":103,"x_max":619,"ha":722,"o":"m 311 841 l 311 1029 l 410 1029 l 410 841 l 588 899 l 619 805 l 441 746 l 551 595 l 470 537 l 360 688 l 251 537 l 170 595 l 279 746 l 103 805 l 133 899 l 311 841 "},"†":{"x_min":82,"x_max":841,"ha":922,"o":"m 396 562 l 82 562 l 82 685 l 396 685 l 396 1003 l 528 1003 l 528 685 l 841 685 l 841 562 l 528 562 l 528 -257 l 396 -257 l 396 562 "},"∕":{"x_min":-292,"x_max":587,"ha":296,"o":"m -292 -26 l 479 1003 l 587 1003 l -183 -26 l -292 -26 "},"°":{"x_min":33,"x_max":423,"ha":457,"o":"m 359 793 q 321 885 359 847 q 229 923 283 923 q 135 885 174 923 q 97 793 97 847 q 135 699 97 738 q 229 661 174 661 q 321 699 283 661 q 359 793 359 738 m 228 987 q 365 929 308 987 q 423 790 423 872 q 366 653 423 710 q 227 597 309 597 q 89 653 145 597 q 33 790 33 709 q 90 929 33 872 q 228 987 147 987 "},"å":{"x_min":69,"x_max":905,"ha":932,"o":"m 397 952 q 417 902 397 921 q 470 884 437 884 q 525 903 504 884 q 547 952 547 922 q 526 1001 547 983 q 470 1020 505 1020 q 416 1001 436 1020 q 397 952 397 983 m 311 952 q 354 1053 311 1016 q 471 1091 397 1091 q 590 1054 547 1091 q 633 952 633 1017 q 590 849 633 886 q 471 813 547 813 q 353 849 396 813 q 311 952 311 886 m 669 115 q 538 16 618 50 q 356 -18 458 -18 q 144 40 219 -18 q 69 205 69 99 q 95 308 69 263 q 176 385 122 353 q 252 412 202 402 q 414 436 302 423 q 471 442 434 438 q 662 538 662 460 q 616 624 662 597 q 469 651 571 651 q 300 616 353 651 q 242 505 247 581 l 102 504 q 198 701 108 635 q 459 768 288 768 q 723 711 646 768 q 800 519 800 655 l 800 220 q 814 134 800 158 q 866 111 829 111 q 884 112 874 111 q 905 115 894 113 l 905 6 q 852 1 878 3 q 801 0 825 0 q 710 27 742 0 q 669 115 679 54 m 665 381 q 583 352 637 365 q 439 330 529 340 q 255 288 294 313 q 216 210 216 263 q 259 126 216 156 q 378 96 302 96 q 583 146 502 96 q 665 270 665 197 l 665 381 "},"0":{"x_min":61,"x_max":865,"ha":926,"o":"m 205 489 q 269 199 205 295 q 463 104 333 104 q 657 199 594 104 q 721 489 721 294 q 657 779 721 684 q 463 875 594 875 q 269 779 333 875 q 205 489 205 683 m 61 489 q 165 869 61 735 q 462 1003 269 1003 q 760 869 655 1003 q 865 489 865 736 q 760 107 865 241 q 462 -26 655 -26 q 165 107 269 -26 q 61 489 61 241 "},"":{"x_min":77,"x_max":1021,"ha":1097,"o":"m 567 824 q 566 834 566 828 q 565 849 565 839 q 630 1005 565 934 q 790 1094 694 1077 q 791 1079 791 1087 q 791 1052 791 1070 q 721 893 791 963 q 583 823 651 823 l 578 823 q 573 824 576 823 q 567 824 570 824 m 1021 273 q 881 40 943 105 q 743 -24 820 -24 q 654 -1 709 -24 q 571 20 599 20 q 482 -1 540 20 q 396 -24 424 -24 q 309 5 353 -24 q 221 95 265 35 q 114 295 152 190 q 77 499 77 401 q 161 741 77 648 q 380 835 246 835 q 485 811 426 835 q 569 788 544 788 q 652 812 592 788 q 755 836 711 836 q 889 809 830 836 q 999 725 949 782 q 896 626 929 680 q 863 502 863 571 q 903 366 863 425 q 1021 273 944 307 "},"”":{"x_min":121,"x_max":555,"ha":685,"o":"m 388 836 l 388 1003 l 555 1003 l 555 836 q 518 690 555 741 q 388 606 481 639 l 388 695 q 450 740 431 712 q 470 815 470 769 q 469 825 470 817 q 468 836 468 832 l 388 836 m 121 836 l 121 1003 l 288 1003 l 288 836 q 250 690 288 741 q 121 606 213 639 l 121 695 q 183 740 164 712 q 203 815 203 769 q 202 825 203 817 q 201 836 201 832 l 121 836 "},"ö":{"x_min":50,"x_max":881,"ha":932,"o":"m 190 371 q 264 172 190 245 q 465 100 338 100 q 667 172 593 100 q 741 371 741 245 q 667 570 741 497 q 465 643 593 643 q 264 569 338 643 q 190 371 190 496 m 50 371 q 163 659 50 551 q 466 768 276 768 q 768 659 655 768 q 881 371 881 551 q 768 82 881 190 q 466 -26 655 -26 q 163 82 276 -26 q 50 371 50 190 m 697 869 l 562 869 l 562 1023 l 697 1023 l 697 869 m 371 869 l 236 869 l 236 1023 l 371 1023 l 371 869 "},"Õ":{"x_min":60,"x_max":1159,"ha":1218,"o":"m 207 501 q 313 211 207 315 q 610 108 420 108 q 905 212 799 108 q 1012 501 1012 316 q 905 790 1012 686 q 608 895 798 895 q 313 790 419 895 q 207 501 207 686 m 60 501 q 208 886 60 743 q 610 1029 356 1029 q 1011 886 863 1029 q 1159 501 1159 743 q 1010 116 1159 258 q 608 -26 862 -26 q 207 116 355 -26 q 60 501 60 258 m 343 1123 q 386 1246 345 1200 q 491 1293 427 1293 q 535 1286 511 1293 q 587 1269 559 1280 l 651 1243 q 665 1236 655 1240 q 726 1218 708 1218 q 767 1235 752 1218 q 788 1290 782 1253 l 875 1290 q 831 1168 872 1214 q 727 1122 791 1122 q 682 1127 706 1122 q 630 1145 658 1133 l 568 1171 q 548 1180 560 1175 q 492 1197 509 1197 q 450 1178 466 1197 q 428 1123 435 1160 l 343 1123 "},"ć":{"x_min":50,"x_max":829,"ha":890,"o":"m 683 497 q 605 604 662 565 q 466 643 547 643 q 264 569 338 643 q 190 371 190 496 q 263 174 190 248 q 456 100 336 100 q 610 148 548 100 q 687 278 673 196 l 829 278 q 703 55 804 136 q 451 -26 602 -26 q 161 84 273 -26 q 50 371 50 194 q 161 657 50 547 q 454 768 273 768 q 699 694 599 768 q 823 497 799 621 l 683 497 m 371 843 l 494 1050 l 664 1050 l 469 843 l 371 843 "},"þ":{"x_min":102,"x_max":923,"ha":973,"o":"m 236 371 q 309 176 236 247 q 508 105 382 105 q 708 175 635 105 q 781 371 781 246 q 708 566 781 495 q 508 638 635 638 q 309 566 382 638 q 236 371 236 494 m 102 -264 l 102 1003 l 236 1003 l 236 633 q 364 729 294 698 q 523 761 434 761 q 812 652 701 761 q 923 371 923 544 q 811 89 923 197 q 522 -18 700 -18 q 363 13 432 -18 q 236 110 293 44 l 236 -264 l 102 -264 "},"]":{"x_min":28,"x_max":358,"ha":450,"o":"m 358 1003 l 358 -264 l 28 -264 l 28 -155 l 225 -155 l 225 894 l 28 894 l 28 1003 l 358 1003 "},"8":{"x_min":62,"x_max":864,"ha":926,"o":"m 677 739 q 622 845 677 807 q 467 884 567 884 q 305 846 361 884 q 249 739 249 809 q 306 628 249 669 q 463 587 364 587 q 619 628 562 587 q 677 739 677 669 m 717 295 q 649 428 717 381 q 461 476 581 476 q 271 428 338 476 q 204 295 204 381 q 272 156 204 207 q 457 105 340 105 q 648 155 579 105 q 717 295 717 205 m 283 537 q 149 611 195 559 q 103 739 103 663 q 201 932 103 861 q 473 1003 300 1003 q 729 930 633 1003 q 825 739 825 858 q 778 611 825 663 q 643 537 731 559 q 808 450 753 514 q 864 283 864 387 q 757 56 864 139 q 463 -26 650 -26 q 169 57 277 -26 q 62 283 62 141 q 119 452 62 386 q 283 537 176 518 "},"R":{"x_min":115,"x_max":1030,"ha":1096,"o":"m 575 882 l 255 882 l 255 554 l 587 554 q 797 591 737 554 q 857 718 857 628 q 798 845 857 809 q 575 882 739 882 m 115 0 l 115 1003 l 643 1003 q 908 933 817 1003 q 999 729 999 863 q 956 571 999 632 q 827 483 913 510 q 938 428 903 472 q 981 293 974 384 l 993 131 q 1006 48 997 74 q 1030 0 1014 21 l 863 0 q 852 40 856 16 q 845 104 848 64 l 834 253 q 782 394 825 357 q 632 431 740 431 l 255 431 l 255 0 l 115 0 "},"o":{"x_min":50,"x_max":881,"ha":932,"o":"m 190 371 q 264 172 190 245 q 465 100 338 100 q 667 172 593 100 q 741 371 741 245 q 667 570 741 497 q 465 643 593 643 q 264 569 338 643 q 190 371 190 496 m 50 371 q 163 659 50 551 q 466 768 276 768 q 768 659 655 768 q 881 371 881 551 q 768 82 881 190 q 466 -26 655 -26 q 163 82 276 -26 q 50 371 50 190 "},"5":{"x_min":64,"x_max":855,"ha":926,"o":"m 64 270 l 207 270 q 279 146 220 188 q 441 104 339 104 q 633 166 560 104 q 707 327 707 228 q 635 486 707 425 q 449 547 563 547 q 317 520 373 547 q 229 442 261 493 l 90 442 l 177 978 l 780 978 l 780 851 l 285 851 l 237 574 q 344 641 282 619 q 487 664 407 664 q 607 649 552 664 q 707 605 662 634 q 815 490 776 560 q 855 337 855 420 q 741 74 855 175 q 443 -26 627 -26 q 180 52 280 -26 q 64 270 79 130 "},"õ":{"x_min":50,"x_max":881,"ha":932,"o":"m 190 371 q 264 172 190 245 q 465 100 338 100 q 667 172 593 100 q 741 371 741 245 q 667 570 741 497 q 465 643 593 643 q 264 569 338 643 q 190 371 190 496 m 50 371 q 163 659 50 551 q 466 768 276 768 q 768 659 655 768 q 881 371 881 551 q 768 82 881 190 q 466 -26 655 -26 q 163 82 276 -26 q 50 371 50 190 m 200 862 q 243 985 202 939 q 348 1032 284 1032 q 392 1025 368 1032 q 444 1008 416 1019 l 508 982 q 522 975 512 979 q 583 957 565 957 q 624 974 609 957 q 645 1029 639 992 l 732 1029 q 688 907 729 953 q 584 861 648 861 q 539 866 563 861 q 487 884 515 872 l 425 910 q 405 919 417 914 q 349 936 366 936 q 307 917 323 936 q 285 862 292 899 l 200 862 "},",":{"x_min":142,"x_max":309,"ha":463,"o":"m 142 0 l 142 167 l 309 167 l 309 0 q 271 -145 309 -94 q 142 -230 234 -196 l 142 -140 q 204 -95 185 -123 q 224 -20 224 -67 q 223 -10 224 -17 q 222 0 222 -4 l 142 0 "},"d":{"x_min":50,"x_max":871,"ha":973,"o":"m 735 368 q 662 563 735 491 q 462 635 589 635 q 263 563 335 635 q 192 368 192 492 q 263 172 192 243 q 462 102 335 102 q 662 173 589 102 q 735 368 735 244 m 871 1003 l 871 0 l 735 0 l 735 108 q 608 10 679 42 q 447 -22 537 -22 q 160 86 271 -22 q 50 368 50 194 q 160 649 50 541 q 449 757 270 757 q 608 725 538 757 q 735 629 677 694 l 735 1003 l 871 1003 "},"\"":{"x_min":61,"x_max":355,"ha":416,"o":"m 355 974 l 355 598 l 261 598 l 261 974 l 355 974 m 155 974 l 155 598 l 61 598 l 61 974 l 155 974 "},"˙":{"x_min":275,"x_max":421,"ha":694,"o":"m 275 872 l 275 1035 l 421 1035 l 421 872 l 275 872 "},"ê":{"x_min":58,"x_max":872,"ha":932,"o":"m 204 440 l 728 440 q 642 589 712 535 q 466 643 573 643 q 290 589 360 643 q 204 440 221 535 m 200 344 l 200 338 q 274 166 200 233 q 466 100 348 100 q 617 134 554 100 q 702 231 679 169 l 860 231 q 716 41 819 109 q 466 -26 613 -26 q 169 81 280 -26 q 58 370 58 189 q 169 659 58 551 q 466 768 280 768 q 764 662 656 768 q 872 370 872 556 l 872 344 l 200 344 m 487 972 l 369 843 l 226 843 l 411 1050 l 562 1050 l 748 843 l 604 843 l 487 972 "},"„":{"x_min":121,"x_max":555,"ha":685,"o":"m 388 0 l 388 167 l 555 167 l 555 0 q 518 -145 555 -94 q 388 -230 481 -196 l 388 -140 q 451 -95 432 -123 q 470 -20 470 -67 q 469 -10 470 -16 q 468 0 468 -3 l 388 0 m 121 0 l 121 167 l 288 167 l 288 0 q 250 -145 288 -94 q 121 -230 213 -196 l 121 -140 q 183 -95 164 -123 q 203 -20 203 -67 q 202 -10 203 -17 q 201 0 201 -3 l 121 0 "},"Â":{"x_min":-8,"x_max":1063,"ha":1065,"o":"m 335 416 l 729 416 l 537 844 l 335 416 m -8 0 l 468 1003 l 616 1003 l 1063 0 l 915 0 l 787 286 l 275 286 l 141 0 l -8 0 m 543 1233 l 425 1104 l 282 1104 l 467 1311 l 618 1311 l 804 1104 l 660 1104 l 543 1233 "},"Í":{"x_min":99,"x_max":392,"ha":392,"o":"m 125 0 l 125 1003 l 267 1003 l 267 0 l 125 0 m 99 1104 l 222 1311 l 392 1311 l 197 1104 l 99 1104 "},"´":{"x_min":250,"x_max":543,"ha":694,"o":"m 250 843 l 373 1050 l 543 1050 l 348 843 l 250 843 "},"Ú":{"x_min":113,"x_max":999,"ha":1117,"o":"m 999 1003 l 999 373 q 886 75 999 177 q 555 -26 773 -26 q 225 75 338 -26 q 113 373 113 177 l 113 1003 l 255 1003 l 255 433 q 328 188 255 267 q 555 110 401 110 q 783 188 710 110 q 857 433 857 266 l 857 1003 l 999 1003 m 461 1104 l 584 1311 l 754 1311 l 559 1104 l 461 1104 "},"Ý":{"x_min":-21,"x_max":1016,"ha":993,"o":"m 428 0 l 428 417 l -21 1003 l 151 1003 l 497 536 l 846 1003 l 1016 1003 l 570 417 l 570 0 l 428 0 m 400 1104 l 523 1311 l 693 1311 l 498 1104 l 400 1104 "},"Ω":{"x_min":53.109375,"x_max":1008.53125,"ha":1061,"o":"m 1008 121 l 1008 0 l 601 0 l 601 121 q 788 299 721 186 q 856 548 856 411 q 766 809 856 711 q 530 908 676 908 q 293 809 383 908 q 204 548 204 710 q 271 299 204 411 q 460 121 339 186 l 460 0 l 53 0 l 53 121 l 269 121 q 113 316 162 215 q 64 542 64 417 q 193 891 64 757 q 530 1025 323 1025 q 866 891 735 1025 q 997 548 997 758 q 948 316 997 417 q 791 121 900 216 l 1008 121 "},"Ö":{"x_min":60,"x_max":1159,"ha":1218,"o":"m 207 501 q 313 211 207 315 q 610 108 420 108 q 905 212 799 108 q 1012 501 1012 316 q 905 790 1012 686 q 608 895 798 895 q 313 790 419 895 q 207 501 207 686 m 60 501 q 208 886 60 743 q 610 1029 356 1029 q 1011 886 863 1029 q 1159 501 1159 743 q 1010 116 1159 258 q 608 -26 862 -26 q 207 116 355 -26 q 60 501 60 258 m 840 1130 l 705 1130 l 705 1284 l 840 1284 l 840 1130 m 514 1130 l 379 1130 l 379 1284 l 514 1284 l 514 1130 "},"z":{"x_min":45,"x_max":779,"ha":823,"o":"m 45 0 l 45 133 l 597 625 l 74 625 l 74 743 l 765 743 l 765 625 l 222 119 l 779 119 l 779 0 l 45 0 "},"™":{"x_min":164,"x_max":952,"ha":1157,"o":"m 652 989 l 754 727 l 850 989 l 952 989 l 952 624 l 886 624 l 886 925 l 773 624 l 735 624 l 617 925 l 617 624 l 551 624 l 551 989 l 652 989 m 471 989 l 471 935 l 354 935 l 354 624 l 281 624 l 281 935 l 164 935 l 164 989 l 471 989 "},"ã":{"x_min":69,"x_max":905,"ha":932,"o":"m 669 115 q 538 16 618 50 q 356 -18 458 -18 q 144 40 219 -18 q 69 205 69 99 q 95 308 69 263 q 176 385 122 353 q 252 412 202 402 q 414 436 302 423 q 471 442 434 438 q 662 538 662 460 q 616 624 662 597 q 469 651 571 651 q 300 616 353 651 q 242 505 247 581 l 102 504 q 198 701 108 635 q 459 768 288 768 q 723 711 646 768 q 800 519 800 655 l 800 220 q 814 134 800 158 q 866 111 829 111 q 884 112 874 111 q 905 115 894 113 l 905 6 q 852 1 878 3 q 801 0 825 0 q 710 27 742 0 q 669 115 679 54 m 665 381 q 583 352 637 365 q 439 330 529 340 q 255 288 294 313 q 216 210 216 263 q 259 126 216 156 q 378 96 302 96 q 583 146 502 96 q 665 270 665 197 l 665 381 m 199 862 q 242 985 201 939 q 347 1032 283 1032 q 391 1025 367 1032 q 443 1008 415 1019 l 507 982 q 521 975 511 979 q 582 957 564 957 q 623 974 608 957 q 644 1029 638 992 l 731 1029 q 687 907 728 953 q 583 861 647 861 q 538 866 562 861 q 486 884 514 872 l 424 910 q 404 919 416 914 q 348 936 365 936 q 306 917 322 936 q 284 862 291 899 l 199 862 "},"æ":{"x_min":81,"x_max":1481,"ha":1539,"o":"m 811 440 l 1334 440 q 1248 589 1318 535 q 1072 643 1179 643 q 893 587 965 643 q 811 440 822 532 m 675 381 q 594 352 647 365 q 450 330 540 340 q 265 288 304 313 q 227 211 227 263 q 269 128 227 157 q 388 99 311 99 q 594 148 513 99 q 675 269 675 197 l 675 381 m 729 139 q 577 18 665 57 q 367 -20 489 -20 q 156 39 232 -20 q 81 203 81 99 q 107 305 81 260 q 187 382 134 350 q 267 411 216 400 q 425 433 318 422 q 470 437 440 434 q 673 537 673 456 q 628 621 673 595 q 480 648 582 648 q 311 613 364 648 q 253 503 257 578 l 113 502 q 212 701 121 635 q 479 768 304 768 q 672 738 596 768 q 780 654 748 709 q 905 740 836 713 q 1072 768 975 768 q 1231 744 1162 768 q 1354 671 1301 720 q 1448 543 1415 617 q 1481 389 1481 470 q 1478 350 1481 376 q 1478 344 1478 346 l 807 344 l 807 338 q 881 165 807 232 q 1072 99 955 99 q 1222 134 1160 99 q 1308 231 1285 169 l 1466 231 q 1322 41 1425 109 q 1072 -26 1219 -26 q 873 14 957 -26 q 729 139 789 54 "},"É":{"x_min":115,"x_max":922,"ha":987,"o":"m 115 0 l 115 1003 l 912 1003 l 912 875 l 257 875 l 257 579 l 872 579 l 872 447 l 257 447 l 257 135 l 922 135 l 922 0 l 115 0 m 433 1104 l 556 1311 l 726 1311 l 531 1104 l 433 1104 "},"~":{"x_min":121,"x_max":1038,"ha":1157,"o":"m 1038 417 q 903 344 967 367 q 774 321 838 321 q 600 360 711 321 q 577 369 585 366 l 567 372 q 382 414 447 414 q 263 388 325 414 q 121 307 201 363 l 121 412 q 258 485 192 461 q 383 510 323 510 q 469 500 425 510 q 580 467 514 491 q 612 455 591 464 q 775 417 720 417 q 897 442 835 417 q 1038 523 959 467 l 1038 417 "},"³":{"x_min":46,"x_max":570,"ha":611,"o":"m 46 576 l 139 576 q 180 481 139 513 q 299 449 221 449 q 425 477 380 449 q 471 556 471 506 q 425 635 471 609 q 287 661 380 661 q 264 660 272 661 q 249 659 256 660 l 249 729 l 285 729 q 406 750 366 729 q 446 816 446 772 q 408 888 446 862 q 306 915 371 915 q 195 883 235 915 q 156 793 156 851 l 156 791 l 60 791 l 60 797 q 124 940 60 889 q 304 991 188 991 q 476 945 411 991 q 542 827 542 900 q 511 745 542 778 q 424 699 481 713 q 532 658 494 693 q 570 563 570 623 q 498 426 570 477 q 304 375 427 375 q 109 423 173 375 q 46 571 46 472 l 46 576 "},"¡":{"x_min":142,"x_max":309,"ha":450,"o":"m 309 1003 l 309 836 l 142 836 l 142 1003 l 309 1003 m 266 753 l 298 365 l 298 0 l 151 0 l 151 360 l 183 753 l 266 753 "},"[":{"x_min":92,"x_max":423,"ha":450,"o":"m 92 -264 l 92 1003 l 423 1003 l 423 894 l 226 894 l 226 -155 l 423 -155 l 423 -264 l 92 -264 "},"%":{"x_min":58,"x_max":1134,"ha":1193,"o":"m 752 239 q 787 103 752 149 q 893 57 823 57 q 998 102 963 57 q 1034 239 1034 148 q 998 377 1034 331 q 893 423 963 423 q 787 376 823 423 q 752 239 752 330 m 652 239 q 714 437 652 368 q 893 506 776 506 q 1071 437 1009 506 q 1134 239 1134 368 q 1071 42 1134 111 q 893 -26 1009 -26 q 714 42 776 -26 q 652 239 652 111 m 229 -26 l 861 1003 l 962 1003 l 330 -26 l 229 -26 m 158 737 q 193 600 158 646 q 298 554 229 554 q 404 600 368 554 q 440 737 440 646 q 404 874 440 828 q 298 920 368 920 q 193 874 228 920 q 158 737 158 828 m 58 737 q 119 934 58 866 q 297 1003 181 1003 q 477 934 415 1003 q 540 737 540 866 q 477 539 540 608 q 297 471 414 471 q 119 539 181 471 q 58 737 58 608 "},"P":{"x_min":115,"x_max":946,"ha":990,"o":"m 257 529 l 520 529 q 742 568 680 529 q 804 702 804 607 q 744 838 804 799 q 530 878 684 878 l 257 878 l 257 529 m 115 0 l 115 1003 l 577 1003 q 855 930 764 1003 q 946 706 946 857 q 855 483 946 556 q 577 411 764 411 l 257 411 l 257 0 l 115 0 "},"∏":{"x_min":106,"x_max":945,"ha":1051,"o":"m 106 999 l 945 999 l 945 -266 l 782 -266 l 782 860 l 269 860 l 269 -266 l 106 -266 l 106 999 "},"_":{"x_min":0,"x_max":694,"ha":694,"o":"m 694 -231 l 694 -328 l 0 -328 l 0 -231 l 694 -231 "},"ñ":{"x_min":98,"x_max":820,"ha":917,"o":"m 98 0 l 98 743 l 231 743 l 231 614 q 368 725 292 689 q 538 762 444 762 q 668 740 611 762 q 761 677 725 719 q 806 589 793 640 q 820 426 820 538 l 820 0 l 686 0 l 686 431 q 644 598 686 549 q 508 648 603 648 q 309 573 386 648 q 233 377 233 498 l 233 0 l 98 0 m 192 862 q 235 985 194 939 q 340 1032 276 1032 q 384 1025 360 1032 q 436 1008 408 1019 l 500 982 q 514 975 504 979 q 575 957 557 957 q 616 974 601 957 q 637 1029 631 992 l 724 1029 q 680 907 721 953 q 576 861 640 861 q 531 866 555 861 q 479 884 507 872 l 417 910 q 397 919 409 914 q 341 936 358 936 q 299 917 315 936 q 277 862 284 899 l 192 862 "},"‚":{"x_min":121,"x_max":288,"ha":418,"o":"m 121 0 l 121 167 l 288 167 l 288 0 q 250 -145 288 -94 q 121 -230 213 -196 l 121 -140 q 183 -95 164 -123 q 203 -20 203 -67 q 202 -10 203 -17 q 201 0 201 -3 l 121 0 "},"Æ":{"x_min":18,"x_max":1536,"ha":1604,"o":"m 729 416 l 729 875 l 623 875 l 383 416 l 729 416 m 18 0 l 537 1003 l 1526 1003 l 1526 875 l 871 875 l 871 579 l 1486 579 l 1486 443 l 871 443 l 871 135 l 1536 135 l 1536 0 l 729 0 l 729 286 l 316 286 l 166 0 l 18 0 "},"₣":{"x_min":115,"x_max":1461,"ha":1450,"o":"m 115 0 l 115 1003 l 880 1003 l 880 875 l 257 875 l 257 579 l 811 579 l 811 443 l 257 443 l 257 0 l 115 0 m 994 0 l 994 743 l 1127 743 l 1127 617 q 1248 729 1178 690 q 1400 768 1318 768 q 1434 764 1421 768 q 1461 755 1448 761 l 1461 613 q 1410 625 1433 621 q 1364 629 1387 629 q 1197 553 1265 629 q 1129 363 1129 477 l 1129 0 l 994 0 "},"ğ":{"x_min":50,"x_max":871,"ha":970,"o":"m 192 371 q 265 172 192 244 q 468 100 339 100 q 671 172 597 100 q 746 371 746 245 q 671 570 746 497 q 468 643 597 643 q 265 570 339 643 q 192 371 192 497 m 871 95 q 772 -178 871 -92 q 456 -264 673 -264 q 203 -202 294 -264 q 100 -24 111 -140 l 251 -24 q 313 -113 261 -84 q 457 -143 364 -143 q 671 -90 607 -143 q 735 85 735 -38 l 735 110 q 608 13 677 44 q 449 -18 538 -18 q 160 89 270 -18 q 50 371 50 197 q 160 652 50 544 q 447 761 271 761 q 617 725 544 761 q 735 622 690 690 l 735 743 l 871 743 l 871 95 m 245 1046 l 339 1046 q 378 976 342 999 q 485 953 415 953 q 591 976 554 953 q 631 1046 627 999 l 725 1046 q 655 896 714 945 q 485 847 596 847 q 314 896 373 847 q 245 1046 255 945 "},"ª":{"x_min":53,"x_max":679,"ha":699,"o":"m 502 563 q 404 495 464 519 q 267 471 344 471 q 109 512 165 471 q 53 628 53 553 q 72 699 53 668 q 132 754 92 731 q 191 773 152 765 q 310 789 230 781 q 352 793 325 790 q 496 861 496 805 q 462 920 496 902 q 352 939 428 939 q 225 915 265 939 q 182 838 185 891 l 77 838 q 148 975 81 929 q 344 1021 215 1021 q 542 982 484 1021 q 600 848 600 943 l 600 637 q 611 577 600 594 q 649 561 622 561 q 675 563 657 561 q 679 563 677 563 l 679 489 q 638 485 658 486 q 601 484 617 484 q 533 503 557 484 q 502 563 509 522 m 498 751 q 436 730 477 739 q 330 716 395 722 q 191 685 219 703 q 163 630 163 667 q 195 571 163 593 q 284 550 227 550 q 437 586 376 550 q 498 673 498 622 l 498 751 "},"Œ":{"x_min":60,"x_max":1695,"ha":1760,"o":"m 888 1003 l 1685 1003 l 1685 875 l 1026 875 l 1026 579 l 1645 579 l 1645 443 l 1026 443 l 1026 135 l 1695 135 l 1695 0 l 888 0 l 888 115 q 766 10 850 47 q 567 -26 682 -26 q 197 116 335 -26 q 60 501 60 259 q 198 883 60 737 q 563 1029 337 1029 q 758 993 678 1029 q 888 887 839 958 l 888 1003 m 888 286 l 888 716 q 767 849 842 804 q 592 894 693 894 q 310 788 414 894 q 207 501 207 683 q 310 214 207 319 q 592 109 414 109 q 767 153 693 109 q 888 286 842 197 "},"T":{"x_min":-6,"x_max":898,"ha":890,"o":"m 516 872 l 516 0 l 374 0 l 374 872 l -6 872 l -6 1003 l 898 1003 l 898 872 l 516 872 "},"š":{"x_min":43,"x_max":779,"ha":821,"o":"m 43 242 l 191 242 q 256 131 200 170 q 408 93 312 93 q 579 122 518 93 q 640 205 640 152 q 611 264 640 244 q 504 297 583 284 l 339 326 q 131 396 185 352 q 78 530 78 441 q 163 707 78 646 q 412 768 248 768 q 663 705 576 768 q 751 524 751 642 l 751 519 l 620 519 q 560 620 613 587 q 405 654 507 654 q 263 628 312 654 q 214 553 214 602 q 243 489 214 511 q 380 450 273 468 l 541 423 q 727 354 675 401 q 779 213 779 307 q 683 36 779 98 q 408 -26 587 -26 q 145 39 235 -26 q 43 242 55 105 m 411 921 l 528 1050 l 672 1050 l 486 843 l 335 843 l 150 1050 l 293 1050 l 411 921 "},"Þ":{"x_min":115,"x_max":946,"ha":990,"o":"m 257 334 l 520 334 q 742 372 680 334 q 804 507 804 411 q 744 642 804 602 q 530 682 684 682 l 257 682 l 257 334 m 115 0 l 115 1003 l 257 1003 l 257 807 l 577 807 q 855 734 764 807 q 946 511 946 661 q 855 287 946 360 q 577 215 764 215 l 257 215 l 257 0 l 115 0 "},"j":{"x_min":-57,"x_max":243,"ha":350,"o":"m 109 743 l 243 743 l 243 -41 q 189 -215 243 -166 q 1 -265 136 -265 q -33 -264 -21 -265 q -57 -263 -46 -264 l -57 -137 q -38 -139 -48 -138 q -10 -140 -29 -140 q 79 -114 49 -140 q 109 -35 109 -88 l 109 743 m 243 840 l 109 840 l 109 1003 l 243 1003 l 243 840 "},"1":{"x_min":137,"x_max":571,"ha":926,"o":"m 435 0 l 435 705 l 137 705 l 137 820 l 158 820 q 382 863 309 820 q 465 1003 455 907 l 571 1003 l 571 0 l 435 0 "},"›":{"x_min":103,"x_max":353,"ha":450,"o":"m 353 289 l 103 98 l 103 245 l 265 370 l 103 496 l 103 644 l 353 452 l 353 289 "},"<":{"x_min":179,"x_max":978,"ha":1157,"o":"m 978 682 l 320 413 l 978 147 l 978 43 l 179 371 l 179 458 l 978 786 l 978 682 "},"t":{"x_min":47,"x_max":492,"ha":518,"o":"m 312 183 q 332 115 312 135 q 402 96 353 96 q 442 99 420 96 q 492 109 464 102 l 492 -13 q 417 -23 443 -20 q 368 -26 390 -26 q 223 16 270 -26 q 176 144 176 58 l 176 626 l 47 626 l 47 743 l 176 743 l 176 932 l 312 932 l 312 743 l 492 743 l 492 626 l 312 626 l 312 183 "},"¬":{"x_min":172,"x_max":984,"ha":1157,"o":"m 984 583 l 984 243 l 891 243 l 891 489 l 172 489 l 172 583 l 984 583 "},"ù":{"x_min":98,"x_max":820,"ha":917,"o":"m 820 743 l 820 0 l 687 0 l 687 125 q 550 15 625 51 q 380 -21 475 -21 q 250 1 307 -21 q 156 65 193 23 q 111 152 125 101 q 98 316 98 203 l 98 743 l 233 743 l 233 311 q 274 143 233 193 q 410 94 315 94 q 609 168 532 94 q 686 365 686 243 l 686 743 l 820 743 m 455 843 l 261 1050 l 430 1050 l 554 843 l 455 843 "},"ï":{"x_min":-55,"x_max":406,"ha":350,"o":"m 109 0 l 109 743 l 243 743 l 243 0 l 109 0 m 406 869 l 271 869 l 271 1023 l 406 1023 l 406 869 m 80 869 l -55 869 l -55 1023 l 80 1023 l 80 869 "},"Ò":{"x_min":60,"x_max":1159,"ha":1218,"o":"m 207 501 q 313 211 207 315 q 610 108 420 108 q 905 212 799 108 q 1012 501 1012 316 q 905 790 1012 686 q 608 895 798 895 q 313 790 419 895 q 207 501 207 686 m 60 501 q 208 886 60 743 q 610 1029 356 1029 q 1011 886 863 1029 q 1159 501 1159 743 q 1010 116 1159 258 q 608 -26 862 -26 q 207 116 355 -26 q 60 501 60 258 m 606 1104 l 412 1311 l 581 1311 l 705 1104 l 606 1104 "},"&":{"x_min":72,"x_max":1143,"ha":1093,"o":"m 465 627 q 573 697 540 660 q 607 782 607 734 q 573 862 607 833 q 481 891 540 891 q 391 861 426 891 q 356 788 356 832 q 379 717 356 752 q 465 627 402 682 m 737 205 l 421 501 q 261 399 307 448 q 215 288 215 351 q 290 149 215 205 q 482 93 366 93 q 618 121 553 93 q 737 205 683 149 m 1143 0 l 956 0 l 825 123 q 661 10 753 47 q 446 -26 569 -26 q 177 56 282 -26 q 72 263 72 139 q 140 448 72 370 q 343 576 209 527 q 251 681 280 630 q 223 787 223 732 q 293 944 223 885 q 482 1004 363 1004 q 668 948 600 1004 q 736 797 736 892 q 688 659 736 720 q 547 555 641 598 l 809 311 q 841 385 830 346 q 855 468 853 424 l 979 468 q 959 338 979 400 q 902 225 940 277 l 1143 0 "},"":{"x_min":11,"x_max":897,"ha":926,"o":"m 11 360 l 42 431 l 130 431 q 129 453 129 441 q 129 489 129 464 q 129 527 129 514 q 130 550 129 539 l 15 550 l 46 621 l 136 621 q 264 905 162 808 q 537 1003 367 1003 q 781 926 687 1003 q 896 712 874 849 l 750 712 q 683 831 739 787 q 538 875 627 875 q 358 812 422 875 q 280 621 294 749 l 764 621 l 731 550 l 275 550 q 273 527 273 539 q 273 489 273 514 q 273 452 273 464 q 275 431 273 441 l 682 431 l 651 360 l 280 360 q 357 167 293 231 q 537 104 421 104 q 680 144 629 104 q 752 271 732 185 l 897 271 q 773 52 867 131 q 536 -26 680 -26 q 263 72 365 -26 q 136 360 161 171 l 11 360 "},"˝":{"x_min":207,"x_max":626,"ha":694,"o":"m 207 843 l 316 1048 l 450 1048 l 278 843 l 207 843 m 383 843 l 492 1048 l 626 1048 l 454 843 l 383 843 "},"I":{"x_min":125,"x_max":267,"ha":392,"o":"m 125 0 l 125 1003 l 267 1003 l 267 0 l 125 0 "},"G":{"x_min":60,"x_max":1077,"ha":1196,"o":"m 923 686 q 805 840 894 786 q 580 895 716 895 q 304 789 405 895 q 203 501 203 683 q 304 214 203 320 q 576 108 405 108 q 831 188 731 108 q 945 405 931 269 l 627 405 l 627 537 l 1077 537 l 1077 0 l 978 0 l 963 168 q 806 23 905 73 q 575 -26 706 -26 q 201 118 342 -26 q 60 501 60 262 q 203 887 60 745 q 591 1029 346 1029 q 918 932 785 1029 q 1067 686 1052 835 l 923 686 "},"`":{"x_min":150,"x_max":443,"ha":694,"o":"m 344 843 l 150 1050 l 319 1050 l 443 843 l 344 843 "},"·":{"x_min":129,"x_max":334,"ha":463,"o":"m 129 489 q 159 560 129 531 q 232 590 189 590 q 304 560 274 590 q 334 489 334 531 q 304 416 334 446 q 232 386 274 386 q 159 416 189 386 q 129 489 129 446 "},"¿":{"x_min":66,"x_max":798,"ha":823,"o":"m 522 740 q 522 727 522 735 q 523 714 523 719 q 501 616 523 657 q 418 526 480 576 q 355 479 403 513 q 282 422 308 445 q 232 357 249 394 q 215 280 215 321 q 272 150 215 198 q 429 102 330 102 q 589 157 533 102 q 649 316 646 212 l 798 316 q 690 64 792 155 q 414 -26 589 -26 q 162 58 258 -26 q 66 278 66 142 q 78 364 66 323 q 114 440 91 405 q 266 570 155 497 q 316 604 300 592 q 366 656 351 628 q 381 720 381 683 q 380 730 381 724 q 380 740 380 736 l 522 740 m 533 1003 l 533 836 l 372 836 l 372 1003 l 533 1003 "},"ý":{"x_min":-14,"x_max":804,"ha":790,"o":"m 474 5 q 397 -148 429 -97 q 336 -222 365 -200 q 266 -253 307 -242 q 170 -264 225 -264 q 128 -262 152 -264 q 78 -258 105 -261 l 78 -132 q 124 -138 105 -136 q 156 -141 143 -141 q 264 -111 228 -141 q 323 0 300 -81 l -14 743 l 147 743 l 399 116 l 646 743 l 804 743 l 474 5 m 299 843 l 422 1050 l 592 1050 l 397 843 l 299 843 "},"º":{"x_min":37,"x_max":661,"ha":699,"o":"m 143 743 q 198 604 143 655 q 350 553 254 553 q 501 603 446 553 q 557 743 557 654 q 501 883 557 832 q 350 934 446 934 q 198 882 254 934 q 143 743 143 831 m 37 743 q 122 945 37 869 q 349 1021 207 1021 q 576 945 492 1021 q 661 743 661 869 q 576 541 661 617 q 349 466 492 466 q 122 541 207 466 q 37 743 37 617 "},"∞":{"x_min":150,"x_max":1009,"ha":1157,"o":"m 620 378 q 699 288 654 319 q 801 258 744 258 q 913 303 870 258 q 957 421 957 349 q 917 535 957 489 q 816 580 877 580 q 716 534 761 580 q 620 378 671 488 m 538 451 q 459 541 504 511 q 357 571 414 571 q 245 526 288 571 q 202 409 202 481 q 241 295 202 340 q 342 250 281 250 q 443 296 397 250 q 538 451 488 342 m 586 327 q 485 192 538 235 q 368 150 432 150 q 213 225 276 150 q 150 413 150 301 q 206 605 150 532 q 354 679 263 679 q 470 636 418 679 q 571 499 522 593 q 671 637 617 593 q 790 682 724 682 q 945 606 881 682 q 1009 416 1009 529 q 952 225 1009 297 q 804 152 895 152 q 690 192 740 152 q 586 327 639 233 "},";":{"x_min":136,"x_max":304,"ha":450,"o":"m 136 575 l 136 743 l 304 743 l 304 575 l 136 575 m 136 0 l 136 167 l 304 167 l 304 0 q 266 -145 304 -94 q 136 -230 228 -196 l 136 -140 q 198 -95 179 -123 q 218 -20 218 -67 q 217 -10 218 -17 q 215 0 216 -4 l 136 0 "},"6":{"x_min":56,"x_max":879,"ha":926,"o":"m 206 496 q 343 611 264 573 q 526 649 423 649 q 781 559 684 649 q 879 325 879 469 q 765 71 879 169 q 469 -26 652 -26 q 163 100 270 -26 q 56 461 56 226 q 169 863 56 722 q 493 1004 283 1004 q 726 939 636 1004 q 835 759 816 875 l 693 759 q 622 851 673 820 q 493 883 571 883 q 277 786 349 883 q 206 496 206 689 m 224 314 q 292 164 224 221 q 472 108 360 108 q 664 165 592 108 q 736 317 736 223 q 665 471 736 413 q 479 530 595 530 q 295 469 367 530 q 224 314 224 409 "},"n":{"x_min":98,"x_max":820,"ha":917,"o":"m 98 0 l 98 743 l 231 743 l 231 614 q 368 725 292 689 q 538 762 444 762 q 668 740 611 762 q 761 677 725 719 q 806 589 793 640 q 820 426 820 538 l 820 0 l 686 0 l 686 431 q 644 598 686 549 q 508 648 603 648 q 309 573 386 648 q 233 377 233 498 l 233 0 l 98 0 "},"¤":{"x_min":11,"x_max":897,"ha":926,"o":"m 11 360 l 42 431 l 130 431 q 129 453 129 441 q 129 489 129 464 q 129 527 129 514 q 130 550 129 539 l 15 550 l 46 621 l 136 621 q 264 905 162 808 q 537 1003 367 1003 q 781 926 687 1003 q 896 712 874 849 l 750 712 q 683 831 739 787 q 538 875 627 875 q 358 812 422 875 q 280 621 294 749 l 764 621 l 731 550 l 275 550 q 273 527 273 539 q 273 489 273 514 q 273 452 273 464 q 275 431 273 441 l 682 431 l 651 360 l 280 360 q 357 167 293 231 q 537 104 421 104 q 680 144 629 104 q 752 271 732 185 l 897 271 q 773 52 867 131 q 536 -26 680 -26 q 263 72 365 -26 q 136 360 161 171 l 11 360 "},"∂":{"x_min":71,"x_max":652,"ha":718,"o":"m 513 421 q 528 535 523 480 q 533 641 533 591 q 508 773 533 729 q 435 818 484 818 q 349 778 397 818 q 275 739 300 739 q 235 754 251 739 q 219 790 219 769 q 267 865 219 832 q 385 899 316 899 q 579 793 507 899 q 652 510 652 688 q 554 132 652 282 q 311 -17 456 -17 q 139 56 208 -17 q 71 240 71 129 q 145 461 71 374 q 330 549 220 549 q 443 518 399 549 q 513 421 487 487 m 480 335 q 450 456 480 414 q 367 499 421 499 q 245 411 293 499 q 198 183 198 323 q 227 62 198 104 q 310 21 256 21 q 432 109 384 21 q 480 335 480 197 "},"p":{"x_min":102,"x_max":923,"ha":973,"o":"m 236 371 q 309 176 236 247 q 508 105 382 105 q 708 175 635 105 q 781 371 781 246 q 708 566 781 495 q 508 638 635 638 q 309 566 382 638 q 236 371 236 494 m 102 -264 l 102 743 l 236 743 l 236 632 q 361 729 290 697 q 523 761 432 761 q 812 652 701 761 q 923 371 923 544 q 811 89 923 197 q 522 -18 700 -18 q 363 13 432 -18 q 236 110 293 44 l 236 -264 l 102 -264 "},"‡":{"x_min":82,"x_max":840,"ha":922,"o":"m 397 583 l 82 583 l 82 708 l 397 708 l 397 1003 l 525 1003 l 525 708 l 840 708 l 840 583 l 525 583 l 525 163 l 840 163 l 840 38 l 525 38 l 525 -257 l 397 -257 l 397 38 l 82 38 l 82 163 l 397 163 l 397 583 "},"√":{"x_min":41,"x_max":885,"ha":885,"o":"m 756 1126 l 885 1126 l 885 1061 l 806 1061 l 403 -28 l 359 -28 l 142 570 l 57 540 l 41 594 l 233 661 l 406 180 l 756 1126 "},"S":{"x_min":70,"x_max":961,"ha":1029,"o":"m 70 340 l 220 340 q 301 163 224 220 q 534 106 379 106 q 739 150 667 106 q 812 275 812 194 q 772 367 812 334 q 640 417 732 400 l 392 461 q 171 552 241 488 q 102 726 102 616 q 211 950 102 871 q 525 1029 321 1029 q 819 946 716 1029 q 925 711 922 864 l 783 711 q 710 852 775 806 q 514 898 644 898 q 319 857 386 898 q 252 738 252 816 q 290 652 252 682 q 429 602 328 622 l 649 559 q 892 465 823 526 q 961 287 961 403 q 847 56 961 138 q 526 -26 733 -26 q 187 66 302 -26 q 70 340 72 158 "},"/":{"x_min":-16,"x_max":455,"ha":386,"o":"m 76 -129 l -16 -129 l 363 1029 l 455 1029 l 76 -129 "},"y":{"x_min":-14,"x_max":804,"ha":790,"o":"m 474 5 q 397 -148 429 -97 q 336 -222 365 -200 q 266 -253 307 -242 q 170 -264 225 -264 q 128 -262 152 -264 q 78 -258 105 -261 l 78 -132 q 124 -138 105 -136 q 156 -141 143 -141 q 264 -111 228 -141 q 323 0 300 -81 l -14 743 l 147 743 l 399 116 l 646 743 l 804 743 l 474 5 "},"≈":{"x_min":121,"x_max":1038,"ha":1157,"o":"m 1038 292 q 902 219 966 242 q 774 196 838 196 q 580 242 709 196 q 382 288 451 288 q 265 263 326 288 q 121 180 205 239 l 121 286 q 259 360 194 336 q 383 385 324 385 q 590 338 461 385 q 775 292 719 292 q 895 316 835 292 q 1038 397 955 340 l 1038 292 m 1038 542 q 902 469 966 492 q 774 446 838 446 q 580 492 709 446 q 382 539 451 539 q 265 514 325 539 q 121 431 205 489 l 121 537 q 258 610 192 586 q 383 635 323 635 q 590 588 462 635 q 775 542 719 542 q 894 565 834 542 q 1038 648 953 589 l 1038 542 "},"g":{"x_min":50,"x_max":871,"ha":970,"o":"m 192 371 q 265 172 192 244 q 468 100 339 100 q 671 172 597 100 q 746 371 746 245 q 671 570 746 497 q 468 643 597 643 q 265 570 339 643 q 192 371 192 497 m 871 95 q 772 -178 871 -92 q 456 -264 673 -264 q 203 -202 294 -264 q 100 -24 111 -140 l 251 -24 q 313 -113 261 -84 q 457 -143 364 -143 q 671 -90 607 -143 q 735 85 735 -38 l 735 110 q 608 13 677 44 q 449 -18 538 -18 q 160 89 270 -18 q 50 371 50 197 q 160 652 50 544 q 447 761 271 761 q 617 725 544 761 q 735 622 690 690 l 735 743 l 871 743 l 871 95 "},"²":{"x_min":40,"x_max":555,"ha":611,"o":"m 40 389 l 40 400 q 79 512 40 464 q 214 610 119 560 q 305 653 236 622 q 407 709 373 685 q 445 752 432 727 q 459 803 459 776 q 415 885 459 853 q 305 918 372 918 q 191 882 231 918 q 150 779 152 846 l 52 779 l 52 784 q 117 937 52 883 q 305 991 183 991 q 487 940 420 991 q 555 803 555 890 q 544 745 555 773 q 515 695 534 718 q 461 648 492 669 q 364 596 430 626 q 317 575 348 589 q 156 470 189 516 l 544 470 l 544 389 l 40 389 "},"ë":{"x_min":58,"x_max":872,"ha":932,"o":"m 204 440 l 728 440 q 642 589 712 535 q 466 643 573 643 q 290 589 360 643 q 204 440 221 535 m 200 344 l 200 338 q 274 166 200 233 q 466 100 348 100 q 617 134 554 100 q 702 231 679 169 l 860 231 q 716 41 819 109 q 466 -26 613 -26 q 169 81 280 -26 q 58 370 58 189 q 169 659 58 551 q 466 768 280 768 q 764 662 656 768 q 872 370 872 556 l 872 344 l 200 344 m 718 869 l 583 869 l 583 1023 l 718 1023 l 718 869 m 392 869 l 257 869 l 257 1023 l 392 1023 l 392 869 "},"–":{"x_min":0,"x_max":694,"ha":694,"o":"m 0 326 l 0 415 l 694 415 l 694 326 l 0 326 "},"ƒ":{"x_min":98,"x_max":785,"ha":926,"o":"m 386 433 l 236 433 l 254 527 l 404 527 l 454 776 q 528 957 482 911 q 671 1004 574 1004 q 722 1000 694 1004 q 785 991 751 997 l 761 869 q 709 876 728 874 q 677 879 691 879 q 622 861 641 879 q 596 798 604 844 l 543 527 l 704 527 l 686 433 l 523 433 l 428 -51 q 355 -233 401 -186 q 211 -281 308 -281 q 163 -277 190 -281 q 98 -266 136 -274 l 121 -146 q 166 -152 146 -150 q 204 -154 187 -154 q 259 -136 241 -154 q 286 -74 277 -119 l 386 433 "},"J":{"x_min":26,"x_max":697,"ha":790,"o":"m 26 340 l 169 340 l 169 317 q 214 155 169 205 q 359 105 259 105 q 468 125 427 105 q 532 191 509 145 q 549 253 544 211 q 554 386 554 295 l 554 1003 l 697 1003 l 697 340 q 683 184 697 236 q 640 92 670 131 q 526 3 593 32 q 367 -26 458 -26 q 111 54 196 -26 q 26 296 26 134 l 26 340 "},"Ã":{"x_min":-8,"x_max":1063,"ha":1065,"o":"m 335 416 l 729 416 l 537 844 l 335 416 m -8 0 l 468 1003 l 616 1003 l 1063 0 l 915 0 l 787 286 l 275 286 l 141 0 l -8 0 m 277 1123 q 320 1246 279 1200 q 425 1293 361 1293 q 469 1286 445 1293 q 521 1269 493 1280 l 585 1243 q 599 1236 589 1240 q 660 1218 642 1218 q 701 1235 686 1218 q 722 1290 716 1253 l 809 1290 q 765 1168 806 1214 q 661 1122 725 1122 q 616 1127 640 1122 q 564 1145 592 1133 l 502 1171 q 482 1180 494 1175 q 426 1197 443 1197 q 384 1178 400 1197 q 362 1123 369 1160 l 277 1123 "},"©":{"x_min":79,"x_max":1079,"ha":1157,"o":"m 714 615 q 669 695 705 667 q 575 724 633 724 q 463 662 504 724 q 423 493 423 601 q 464 327 423 386 q 582 268 506 268 q 674 299 637 268 q 721 387 711 331 l 819 387 q 746 244 812 299 q 577 189 679 189 q 384 270 454 189 q 314 497 314 351 q 387 715 314 632 q 581 799 461 799 q 742 748 678 799 q 813 615 806 697 l 714 615 m 1014 492 q 981 659 1014 580 q 888 799 949 738 q 746 894 825 861 q 579 927 668 927 q 414 895 492 927 q 275 802 336 863 q 177 658 211 739 q 144 492 144 578 q 177 328 144 406 q 273 186 210 249 q 414 91 335 124 q 579 59 492 59 q 744 92 664 59 q 888 188 823 125 q 982 325 950 248 q 1014 492 1014 403 m 577 993 q 771 956 680 993 q 933 847 861 919 q 1041 685 1003 777 q 1079 493 1079 593 q 1042 302 1079 391 q 934 142 1005 212 q 767 31 859 70 q 577 -7 676 -7 q 388 30 479 -7 q 226 141 298 68 q 116 303 154 212 q 79 493 79 393 q 116 683 79 592 q 227 848 154 775 q 387 956 298 919 q 577 993 477 993 "},"˘":{"x_min":107,"x_max":587,"ha":694,"o":"m 107 1046 l 201 1046 q 240 976 204 999 q 347 953 277 953 q 453 976 416 953 q 493 1046 489 999 l 587 1046 q 517 896 576 945 q 347 847 458 847 q 176 896 235 847 q 107 1046 117 945 "},"≥":{"x_min":178,"x_max":981,"ha":1157,"o":"m 981 110 l 981 16 l 178 16 l 178 110 l 981 110 m 981 550 l 981 467 l 178 200 l 178 301 l 814 508 l 178 718 l 178 818 l 981 550 "},"D":{"x_min":115,"x_max":1128,"ha":1187,"o":"m 556 1003 q 813 981 729 1003 q 961 909 896 960 q 1085 741 1043 845 q 1128 501 1128 638 q 1085 260 1128 364 q 961 92 1043 157 q 813 21 896 42 q 556 0 729 0 l 115 0 l 115 1003 l 556 1003 m 603 878 l 257 878 l 257 126 l 603 126 q 764 142 702 126 q 868 195 826 159 q 950 322 920 240 q 981 502 981 404 q 950 682 981 601 q 868 808 920 763 q 764 861 826 845 q 603 878 702 878 "},"ÿ":{"x_min":-14,"x_max":804,"ha":790,"o":"m 474 5 q 397 -148 429 -97 q 336 -222 365 -200 q 266 -253 307 -242 q 170 -264 225 -264 q 128 -262 152 -264 q 78 -258 105 -261 l 78 -132 q 124 -138 105 -136 q 156 -141 143 -141 q 264 -111 228 -141 q 323 0 300 -81 l -14 743 l 147 743 l 399 116 l 646 743 l 804 743 l 474 5 m 627 869 l 492 869 l 492 1023 l 627 1023 l 627 869 m 301 869 l 166 869 l 166 1023 l 301 1023 l 301 869 "},"ł":{"x_min":-23,"x_max":384,"ha":364,"o":"m 115 0 l 115 422 l 20 351 l -23 412 l 115 511 l 115 1003 l 251 1003 l 251 597 l 342 659 l 384 600 l 251 505 l 251 0 l 115 0 "},"Ł":{"x_min":-31.875,"x_max":877,"ha":897,"o":"m 122 0 l 122 409 l 18 336 l -31 405 l 122 512 l 122 1003 l 264 1003 l 264 600 l 523 780 l 572 711 l 264 495 l 264 135 l 877 135 l 877 0 l 122 0 "},"$":{"x_min":46,"x_max":879,"ha":926,"o":"m 425 571 l 425 868 q 269 823 324 862 q 215 719 215 784 q 266 621 215 657 q 425 571 317 584 m 505 115 q 679 157 621 119 q 737 269 737 195 q 686 372 737 336 q 505 430 636 408 l 505 115 m 46 310 l 189 310 q 253 170 193 220 q 425 115 313 121 l 425 445 q 157 537 240 473 q 74 715 74 601 q 166 900 74 830 q 425 978 259 970 l 425 1084 l 505 1084 l 505 979 q 759 902 665 973 q 860 713 853 831 l 718 713 q 654 820 707 783 q 505 862 602 857 l 505 554 q 795 457 712 519 q 879 277 879 394 q 782 78 879 149 q 505 1 685 6 l 505 -116 l 425 -116 l 425 1 q 147 88 249 5 q 46 310 46 171 "},"w":{"x_min":-3,"x_max":1231,"ha":1227,"o":"m 278 0 l -3 743 l 161 743 l 352 126 l 540 743 l 695 743 l 872 126 l 1072 743 l 1231 743 l 943 0 l 790 0 l 615 609 l 432 0 l 278 0 "},"\\":{"x_min":-69,"x_max":402,"ha":386,"o":"m 310 -129 l -69 1029 l 22 1029 l 402 -129 l 310 -129 "},"∫":{"x_min":32,"x_max":690,"ha":724,"o":"m 210 -178 q 291 288 282 -178 q 294 400 293 361 q 366 900 302 749 q 567 1051 430 1051 q 656 1022 622 1051 q 690 949 690 993 q 668 891 690 912 q 609 870 646 870 q 561 882 580 870 q 534 919 542 895 q 527 954 530 929 q 513 979 524 979 q 431 559 440 979 q 426 353 428 428 q 350 -111 414 28 q 153 -252 286 -252 q 66 -223 100 -252 q 32 -151 32 -195 q 55 -92 32 -113 q 119 -71 78 -71 q 157 -80 141 -71 q 184 -109 174 -90 q 194 -149 191 -121 q 210 -178 197 -178 "},"Ì":{"x_min":-1,"x_max":292,"ha":392,"o":"m 125 0 l 125 1003 l 267 1003 l 267 0 l 125 0 m 193 1104 l -1 1311 l 168 1311 l 292 1104 l 193 1104 "},"Ç":{"x_min":60,"x_max":1117,"ha":1166,"o":"m 1117 388 q 958 86 1096 199 q 608 -26 820 -26 q 207 116 355 -26 q 60 501 60 258 q 208 886 60 743 q 609 1029 356 1029 q 953 921 817 1029 q 1105 638 1089 813 l 958 638 q 844 826 936 758 q 608 895 751 895 q 313 790 419 895 q 207 501 207 686 q 313 212 207 316 q 609 108 419 108 q 853 184 755 108 q 970 388 951 260 l 1117 388 m 422 -273 l 448 -215 q 522 -233 490 -227 q 578 -240 554 -240 q 640 -226 619 -240 q 662 -187 662 -213 q 646 -150 662 -163 q 602 -138 631 -138 q 574 -140 588 -138 q 548 -148 561 -143 l 518 -125 l 587 0 l 645 0 l 597 -86 q 624 -79 611 -81 q 648 -77 637 -77 q 744 -107 709 -77 q 779 -189 779 -137 q 737 -278 779 -247 q 616 -309 696 -309 q 519 -300 567 -309 q 422 -273 471 -291 "},"C":{"x_min":60,"x_max":1117,"ha":1166,"o":"m 1117 388 q 958 86 1096 199 q 608 -26 820 -26 q 207 116 355 -26 q 60 501 60 258 q 208 886 60 743 q 609 1029 356 1029 q 953 921 817 1029 q 1105 638 1089 813 l 958 638 q 844 826 936 758 q 608 895 751 895 q 313 790 419 895 q 207 501 207 686 q 313 212 207 316 q 609 108 419 108 q 853 184 755 108 q 970 388 951 260 l 1117 388 "},"!":{"x_min":142,"x_max":309,"ha":450,"o":"m 142 0 l 142 167 l 309 167 l 309 0 l 142 0 m 183 250 l 151 637 l 151 1003 l 298 1003 l 298 641 l 266 250 l 183 250 "},"ç":{"x_min":50,"x_max":829,"ha":890,"o":"m 683 497 q 605 604 662 565 q 466 643 547 643 q 264 569 338 643 q 190 371 190 496 q 263 174 190 248 q 456 100 336 100 q 610 148 548 100 q 687 278 673 196 l 829 278 q 703 55 804 136 q 451 -26 602 -26 q 161 84 273 -26 q 50 371 50 194 q 161 657 50 547 q 454 768 273 768 q 699 694 599 768 q 823 497 799 621 l 683 497 m 260 -273 l 286 -215 q 360 -233 328 -227 q 416 -240 392 -240 q 478 -226 457 -240 q 500 -187 500 -213 q 484 -150 500 -163 q 440 -138 469 -138 q 412 -140 426 -138 q 386 -148 399 -143 l 356 -125 l 425 0 l 483 0 l 435 -86 q 462 -79 449 -81 q 486 -77 475 -77 q 582 -107 547 -77 q 617 -189 617 -137 q 575 -278 617 -247 q 454 -309 534 -309 q 357 -300 405 -309 q 260 -273 309 -291 "},"È":{"x_min":115,"x_max":922,"ha":987,"o":"m 115 0 l 115 1003 l 912 1003 l 912 875 l 257 875 l 257 579 l 872 579 l 872 447 l 257 447 l 257 135 l 922 135 l 922 0 l 115 0 m 527 1104 l 333 1311 l 502 1311 l 626 1104 l 527 1104 "},"X":{"x_min":7,"x_max":990,"ha":999,"o":"m 7 0 l 419 514 l 48 1003 l 225 1003 l 505 622 l 808 1003 l 979 1003 l 587 515 l 990 0 l 809 0 l 498 412 l 189 0 l 7 0 "},"ô":{"x_min":50,"x_max":881,"ha":932,"o":"m 190 371 q 264 172 190 245 q 465 100 338 100 q 667 172 593 100 q 741 371 741 245 q 667 570 741 497 q 465 643 593 643 q 264 569 338 643 q 190 371 190 496 m 50 371 q 163 659 50 551 q 466 768 276 768 q 768 659 655 768 q 881 371 881 551 q 768 82 881 190 q 466 -26 655 -26 q 163 82 276 -26 q 50 371 50 190 m 466 972 l 348 843 l 205 843 l 390 1050 l 541 1050 l 727 843 l 583 843 l 466 972 "},"đ":{"x_min":50,"x_max":979,"ha":979,"o":"m 734 368 q 661 563 734 491 q 462 635 588 635 q 264 563 336 635 q 192 368 192 492 q 264 173 192 244 q 462 102 336 102 q 661 173 588 102 q 734 368 734 244 m 869 1003 l 869 913 l 979 913 l 979 836 l 869 836 l 869 0 l 734 0 l 734 108 q 608 10 679 42 q 446 -22 538 -22 q 160 86 271 -22 q 50 368 50 194 q 160 649 50 541 q 448 757 271 757 q 608 726 539 757 q 734 629 677 695 l 734 836 l 400 836 l 400 913 l 734 913 l 734 1003 l 869 1003 "},"}":{"x_min":108,"x_max":582,"ha":694,"o":"m 390 758 l 390 592 q 426 451 390 492 q 551 410 463 410 q 566 411 556 410 q 582 412 576 412 l 582 310 q 567 310 577 310 q 552 311 556 311 q 426 270 463 311 q 390 128 390 229 l 390 -36 q 374 -180 390 -137 q 322 -246 359 -223 q 252 -272 293 -264 q 137 -280 210 -280 l 108 -280 l 108 -178 l 134 -178 q 244 -147 215 -178 q 273 -23 273 -117 l 273 139 q 303 294 273 248 q 409 359 333 340 q 303 426 333 380 q 273 581 273 472 l 273 745 q 244 869 273 839 q 134 900 215 900 l 108 900 l 108 1002 l 133 1002 q 249 993 205 1002 q 322 966 292 985 q 374 901 359 943 q 390 758 390 858 "},"â":{"x_min":69,"x_max":905,"ha":932,"o":"m 669 115 q 538 16 618 50 q 356 -18 458 -18 q 144 40 219 -18 q 69 205 69 99 q 95 308 69 263 q 176 385 122 353 q 252 412 202 402 q 414 436 302 423 q 471 442 434 438 q 662 538 662 460 q 616 624 662 597 q 469 651 571 651 q 300 616 353 651 q 242 505 247 581 l 102 504 q 198 701 108 635 q 459 768 288 768 q 723 711 646 768 q 800 519 800 655 l 800 220 q 814 134 800 158 q 866 111 829 111 q 884 112 874 111 q 905 115 894 113 l 905 6 q 852 1 878 3 q 801 0 825 0 q 710 27 742 0 q 669 115 679 54 m 665 381 q 583 352 637 365 q 439 330 529 340 q 255 288 294 313 q 216 210 216 263 q 259 126 216 156 q 378 96 302 96 q 583 146 502 96 q 665 270 665 197 l 665 381 m 465 972 l 347 843 l 204 843 l 389 1050 l 540 1050 l 726 843 l 582 843 l 465 972 "},"ø":{"x_min":34.453125,"x_max":900.671875,"ha":932,"o":"m 231 212 l 644 591 q 564 630 609 617 q 466 643 519 643 q 263 568 338 643 q 189 367 189 493 q 199 286 189 324 q 231 212 210 248 m 695 534 l 283 156 q 363 114 316 129 q 466 100 410 100 q 668 174 593 100 q 743 375 743 248 q 731 458 743 419 q 695 534 719 498 m 132 118 q 70 230 91 165 q 50 371 50 294 q 163 659 50 551 q 466 768 276 768 q 623 746 554 768 q 743 683 692 725 l 849 781 l 900 727 l 795 630 q 859 514 837 581 q 881 371 881 448 q 768 82 881 190 q 466 -26 655 -26 q 309 -3 379 -26 q 184 65 239 19 l 84 -28 l 34 27 l 132 118 "},"Ä":{"x_min":-8,"x_max":1063,"ha":1065,"o":"m 335 416 l 729 416 l 537 844 l 335 416 m -8 0 l 468 1003 l 616 1003 l 1063 0 l 915 0 l 787 286 l 275 286 l 141 0 l -8 0 m 774 1130 l 639 1130 l 639 1284 l 774 1284 l 774 1130 m 448 1130 l 313 1130 l 313 1284 l 448 1284 l 448 1130 "},"‰":{"x_min":58,"x_max":1697,"ha":1756,"o":"m 1315 239 q 1350 103 1315 149 q 1455 57 1386 57 q 1561 103 1525 57 q 1597 239 1597 149 q 1561 376 1597 330 q 1455 423 1525 423 q 1350 376 1386 423 q 1315 239 1315 330 m 1215 239 q 1276 437 1215 368 q 1454 506 1338 506 q 1634 437 1571 506 q 1697 239 1697 368 q 1634 42 1697 111 q 1454 -26 1571 -26 q 1276 42 1338 -26 q 1215 239 1215 111 m 752 239 q 787 103 752 149 q 893 57 823 57 q 998 102 963 57 q 1034 239 1034 148 q 998 377 1034 331 q 893 423 963 423 q 787 376 823 423 q 752 239 752 330 m 652 239 q 714 437 652 368 q 893 506 776 506 q 1071 437 1009 506 q 1134 239 1134 368 q 1071 42 1134 111 q 893 -26 1009 -26 q 714 42 776 -26 q 652 239 652 111 m 229 -26 l 861 1003 l 962 1003 l 330 -26 l 229 -26 m 158 737 q 193 600 158 646 q 298 554 229 554 q 404 600 368 554 q 440 737 440 646 q 404 874 440 828 q 298 920 368 920 q 193 874 228 920 q 158 737 158 828 m 58 737 q 119 934 58 866 q 297 1003 181 1003 q 477 934 415 1003 q 540 737 540 866 q 477 539 540 608 q 297 471 414 471 q 119 539 181 471 q 58 737 58 608 "},"N":{"x_min":115,"x_max":1076,"ha":1193,"o":"m 115 0 l 115 1003 l 306 1003 l 938 147 l 938 1003 l 1076 1003 l 1076 0 l 884 0 l 254 855 l 254 0 l 115 0 "},"—":{"x_min":0,"x_max":1389,"ha":1389,"o":"m 1389 415 l 1389 326 l 0 326 l 0 415 l 1389 415 "},"2":{"x_min":61,"x_max":842,"ha":926,"o":"m 61 0 l 61 18 q 121 204 61 124 q 326 368 181 284 q 463 439 358 386 q 619 533 567 492 q 675 602 655 561 q 696 689 696 643 q 630 825 696 772 q 462 879 565 879 q 290 819 350 879 q 228 648 230 759 l 78 647 l 78 657 q 178 913 78 823 q 464 1003 278 1003 q 740 918 639 1003 q 842 690 842 834 q 826 593 842 639 q 780 508 811 547 q 554 345 723 432 l 551 344 q 478 307 526 330 q 237 135 286 210 l 826 135 l 826 0 l 61 0 "},"ü":{"x_min":98,"x_max":820,"ha":917,"o":"m 820 743 l 820 0 l 687 0 l 687 125 q 550 15 625 51 q 380 -21 475 -21 q 250 1 307 -21 q 156 65 193 23 q 111 152 125 101 q 98 316 98 203 l 98 743 l 233 743 l 233 311 q 274 143 233 193 q 410 94 315 94 q 609 168 532 94 q 686 365 686 243 l 686 743 l 820 743 m 689 869 l 554 869 l 554 1023 l 689 1023 l 689 869 m 363 869 l 228 869 l 228 1023 l 363 1023 l 363 869 "},"":{"x_min":24,"x_max":707,"ha":817,"o":"m 154 0 l 154 626 l 24 626 l 24 743 l 154 743 l 154 820 q 200 959 154 916 q 347 1003 246 1003 q 413 1000 383 1003 q 471 991 443 997 l 471 871 q 424 877 447 875 q 382 880 402 880 q 309 861 329 880 q 289 792 289 842 l 289 743 l 471 743 l 471 626 l 289 626 l 289 0 l 154 0 m 573 0 l 573 1003 l 707 1003 l 707 0 l 573 0 "},"Ó":{"x_min":60,"x_max":1159,"ha":1218,"o":"m 207 501 q 313 211 207 315 q 610 108 420 108 q 905 212 799 108 q 1012 501 1012 316 q 905 790 1012 686 q 608 895 798 895 q 313 790 419 895 q 207 501 207 686 m 60 501 q 208 886 60 743 q 610 1029 356 1029 q 1011 886 863 1029 q 1159 501 1159 743 q 1010 116 1159 258 q 608 -26 862 -26 q 207 116 355 -26 q 60 501 60 258 m 512 1104 l 635 1311 l 805 1311 l 610 1104 l 512 1104 "},"˜":{"x_min":81,"x_max":613,"ha":694,"o":"m 81 862 q 124 985 83 939 q 229 1032 165 1032 q 273 1025 249 1032 q 325 1008 297 1019 l 389 982 q 403 975 393 979 q 464 957 446 957 q 505 974 490 957 q 526 1029 520 992 l 613 1029 q 569 907 610 953 q 465 861 529 861 q 420 866 444 861 q 368 884 396 872 l 306 910 q 286 919 298 914 q 230 936 247 936 q 188 917 204 936 q 166 862 173 899 l 81 862 "},"ˇ":{"x_min":86,"x_max":608,"ha":694,"o":"m 347 921 l 464 1050 l 608 1050 l 422 843 l 271 843 l 86 1050 l 229 1050 l 347 921 "},"Ÿ":{"x_min":-21,"x_max":1016,"ha":993,"o":"m 428 0 l 428 417 l -21 1003 l 151 1003 l 497 536 l 846 1003 l 1016 1003 l 570 417 l 570 0 l 428 0 m 728 1130 l 593 1130 l 593 1284 l 728 1284 l 728 1130 m 402 1130 l 267 1130 l 267 1284 l 402 1284 l 402 1130 "},"€":{"x_min":11,"x_max":897,"ha":926,"o":"m 11 360 l 42 431 l 130 431 q 129 453 129 441 q 129 489 129 464 q 129 527 129 514 q 130 550 129 539 l 15 550 l 46 621 l 136 621 q 264 905 162 808 q 537 1003 367 1003 q 781 926 687 1003 q 896 712 874 849 l 750 712 q 683 831 739 787 q 538 875 627 875 q 358 812 422 875 q 280 621 294 749 l 764 621 l 731 550 l 275 550 q 273 527 273 539 q 273 489 273 514 q 273 452 273 464 q 275 431 273 441 l 682 431 l 651 360 l 280 360 q 357 167 293 231 q 537 104 421 104 q 680 144 629 104 q 752 271 732 185 l 897 271 q 773 52 867 131 q 536 -26 680 -26 q 263 72 365 -26 q 136 360 161 171 l 11 360 "},"ß":{"x_min":98,"x_max":837,"ha":889,"o":"m 98 0 l 98 694 q 182 925 98 848 q 435 1003 267 1003 q 698 938 606 1003 q 790 755 790 874 q 751 623 790 676 q 638 545 713 570 q 787 463 738 526 q 837 292 837 400 q 741 69 837 156 q 496 -17 646 -17 q 435 -12 467 -17 q 370 0 404 -8 l 370 113 q 422 104 396 107 q 472 102 448 102 q 638 153 579 102 q 698 298 698 205 q 636 438 698 395 q 431 482 574 482 l 379 482 l 379 597 l 466 597 q 605 633 558 597 q 653 741 653 670 q 600 849 653 811 q 450 888 547 888 q 280 837 327 888 q 233 648 233 786 l 233 0 l 98 0 "},"s":{"x_min":43,"x_max":779,"ha":821,"o":"m 43 242 l 191 242 q 256 131 200 170 q 408 93 312 93 q 579 122 518 93 q 640 205 640 152 q 611 264 640 244 q 504 297 583 284 l 339 326 q 131 396 185 352 q 78 530 78 441 q 163 707 78 646 q 412 768 248 768 q 663 705 576 768 q 751 524 751 642 l 751 519 l 620 519 q 560 620 613 587 q 405 654 507 654 q 263 628 312 654 q 214 553 214 602 q 243 489 214 511 q 380 450 273 468 l 541 423 q 727 354 675 401 q 779 213 779 307 q 683 36 779 98 q 408 -26 587 -26 q 145 39 235 -26 q 43 242 55 105 "},"?":{"x_min":36,"x_max":768,"ha":823,"o":"m 312 263 q 311 275 312 267 q 311 288 311 284 q 332 385 311 344 q 414 476 353 426 q 478 523 430 489 q 552 580 525 557 q 602 645 585 609 q 619 722 619 681 q 561 852 619 804 q 404 901 503 901 q 243 846 300 901 q 185 689 187 791 l 36 689 q 142 938 41 848 q 418 1029 244 1029 q 671 945 575 1029 q 768 726 768 862 q 755 639 768 680 q 719 563 742 598 q 564 430 677 505 q 517 399 533 409 q 467 346 483 374 q 452 282 452 319 q 453 272 452 278 q 453 263 453 266 l 312 263 m 301 0 l 301 167 l 462 167 l 462 0 l 301 0 "},"c":{"x_min":50,"x_max":829,"ha":890,"o":"m 683 497 q 605 604 662 565 q 466 643 547 643 q 264 569 338 643 q 190 371 190 496 q 263 174 190 248 q 456 100 336 100 q 610 148 548 100 q 687 278 673 196 l 829 278 q 703 55 804 136 q 451 -26 602 -26 q 161 84 273 -26 q 50 371 50 194 q 161 657 50 547 q 454 768 273 768 q 699 694 599 768 q 823 497 799 621 l 683 497 "},"¶":{"x_min":45,"x_max":651,"ha":694,"o":"m 651 945 l 570 945 l 570 0 l 493 0 l 493 945 l 374 945 l 374 0 l 297 0 l 297 530 q 113 599 181 535 q 45 766 45 663 q 117 937 45 872 q 311 1003 190 1003 l 651 1003 l 651 945 "},"•":{"x_min":208,"x_max":609,"ha":819,"o":"m 208 516 q 266 657 208 599 q 409 716 325 716 q 550 657 491 716 q 609 516 609 598 q 549 374 609 433 q 407 315 490 315 q 266 373 324 315 q 208 516 208 432 "},"(":{"x_min":81,"x_max":447,"ha":450,"o":"m 447 1003 q 283 698 337 855 q 230 369 230 542 q 283 39 230 195 q 447 -264 337 -116 l 344 -264 q 144 52 208 -100 q 81 369 81 206 q 144 685 81 532 q 344 1003 208 838 l 447 1003 "},"◊":{"x_min":4,"x_max":682,"ha":686,"o":"m 343 956 l 81 402 l 343 -157 l 604 402 l 343 956 m 343 1122 l 682 402 l 343 -323 l 4 402 l 343 1122 "},"­":{"x_min":66,"x_max":576,"ha":643,"o":"m 66 310 l 66 432 l 576 432 l 576 310 l 66 310 "},":":{"x_min":142,"x_max":309,"ha":450,"o":"m 142 0 l 142 167 l 309 167 l 309 0 l 142 0 m 142 575 l 142 743 l 309 743 l 309 575 l 142 575 "},"Û":{"x_min":113,"x_max":999,"ha":1117,"o":"m 999 1003 l 999 373 q 886 75 999 177 q 555 -26 773 -26 q 225 75 338 -26 q 113 373 113 177 l 113 1003 l 255 1003 l 255 433 q 328 188 255 267 q 555 110 401 110 q 783 188 710 110 q 857 433 857 266 l 857 1003 l 999 1003 m 558 1233 l 440 1104 l 297 1104 l 482 1311 l 633 1311 l 819 1104 l 675 1104 l 558 1233 "},"V":{"x_min":-8,"x_max":1038,"ha":1029,"o":"m 430 0 l -8 1003 l 143 1003 l 514 127 l 884 1003 l 1038 1003 l 594 0 l 430 0 "}," ":{"x_min":0,"x_max":0,"ha":926},"@":{"x_min":72,"x_max":1318,"ha":1389,"o":"m 870 579 l 909 657 l 998 657 l 899 265 q 895 244 897 254 q 894 225 894 234 q 911 178 894 194 q 962 161 929 161 q 1031 179 994 161 q 1103 231 1068 197 q 1188 357 1158 282 q 1219 516 1219 432 q 1089 801 1219 692 q 751 911 960 911 q 584 892 661 911 q 441 833 508 873 q 241 630 312 756 q 170 352 170 504 q 211 143 170 232 q 342 -12 253 54 q 502 -92 409 -64 q 697 -121 594 -121 q 919 -87 811 -121 q 1118 7 1027 -54 l 1155 -47 q 942 -161 1054 -123 q 705 -199 829 -199 q 469 -167 576 -199 q 279 -72 362 -135 q 123 113 175 7 q 72 353 72 219 q 107 566 72 465 q 209 748 142 666 q 447 931 308 869 q 756 994 587 994 q 966 963 867 994 q 1138 877 1066 932 q 1272 720 1226 809 q 1318 528 1318 631 q 1274 314 1318 409 q 1149 154 1231 219 q 1048 98 1103 118 q 935 78 993 78 q 834 105 868 78 q 800 184 800 132 l 800 197 q 712 108 762 137 q 596 80 662 80 q 437 137 492 80 q 383 305 383 195 q 476 573 383 465 q 706 681 570 681 q 805 655 764 681 q 870 579 846 630 m 807 321 l 847 481 q 800 574 835 541 q 712 607 765 607 q 555 518 619 607 q 492 301 492 430 q 524 191 492 230 q 618 153 557 153 q 736 199 683 153 q 807 321 788 246 "},"¾":{"x_min":45,"x_max":1429,"ha":1463,"o":"m 1235 0 l 1235 137 l 914 137 l 914 210 l 1242 554 l 1325 554 l 1325 205 l 1429 205 l 1429 137 l 1325 137 l 1325 0 l 1235 0 m 1000 205 l 1235 205 l 1240 471 l 1000 205 m 292 -26 l 1063 1003 l 1171 1003 l 400 -26 l 292 -26 m 45 603 l 132 603 q 172 514 133 544 q 287 484 212 484 q 405 511 362 484 q 449 584 449 538 q 406 658 449 634 q 275 682 363 682 q 251 681 259 682 q 237 680 243 681 l 237 744 q 250 744 243 744 q 270 744 258 744 q 386 764 348 744 q 425 827 425 784 q 389 893 425 868 q 291 919 353 919 q 185 889 223 919 q 147 806 147 859 l 147 802 l 57 802 l 57 807 q 117 942 57 894 q 290 990 178 990 q 454 947 392 990 q 517 837 517 905 q 488 761 517 791 q 404 717 460 731 q 507 679 471 712 q 543 591 543 647 q 474 462 543 510 q 290 414 406 414 q 105 460 165 414 q 45 600 45 506 l 45 603 "},"i":{"x_min":109,"x_max":243,"ha":350,"o":"m 243 840 l 109 840 l 109 1003 l 243 1003 l 243 840 m 109 0 l 109 743 l 243 743 l 243 0 l 109 0 "},"≤":{"x_min":178,"x_max":981.359375,"ha":1157,"o":"m 981 110 l 981 16 l 178 16 l 178 110 l 981 110 m 980 718 l 344 508 l 980 301 l 980 200 l 178 467 l 178 550 l 980 818 l 980 718 "},"m":{"x_min":98,"x_max":1404,"ha":1499,"o":"m 231 614 q 368 725 292 689 q 538 762 444 762 q 711 720 642 762 q 803 602 780 678 q 946 723 869 685 q 1121 762 1022 762 q 1252 740 1195 762 q 1345 677 1309 719 q 1390 589 1376 640 q 1404 426 1404 538 l 1404 0 l 1269 0 l 1269 431 q 1227 598 1269 549 q 1091 648 1186 648 q 892 573 969 648 q 816 377 816 498 l 816 0 l 686 0 l 686 431 q 644 598 686 549 q 508 648 603 648 q 309 573 386 648 q 233 377 233 498 l 233 0 l 98 0 l 98 743 l 231 743 l 231 614 "},"ž":{"x_min":45,"x_max":779,"ha":823,"o":"m 45 0 l 45 133 l 597 625 l 74 625 l 74 743 l 765 743 l 765 625 l 222 119 l 779 119 l 779 0 l 45 0 m 412 921 l 529 1050 l 673 1050 l 487 843 l 336 843 l 151 1050 l 294 1050 l 412 921 "},"á":{"x_min":69,"x_max":905,"ha":932,"o":"m 669 115 q 538 16 618 50 q 356 -18 458 -18 q 144 40 219 -18 q 69 205 69 99 q 95 308 69 263 q 176 385 122 353 q 252 412 202 402 q 414 436 302 423 q 471 442 434 438 q 662 538 662 460 q 616 624 662 597 q 469 651 571 651 q 300 616 353 651 q 242 505 247 581 l 102 504 q 198 701 108 635 q 459 768 288 768 q 723 711 646 768 q 800 519 800 655 l 800 220 q 814 134 800 158 q 866 111 829 111 q 884 112 874 111 q 905 115 894 113 l 905 6 q 852 1 878 3 q 801 0 825 0 q 710 27 742 0 q 669 115 679 54 m 665 381 q 583 352 637 365 q 439 330 529 340 q 255 288 294 313 q 216 210 216 263 q 259 126 216 156 q 378 96 302 96 q 583 146 502 96 q 665 270 665 197 l 665 381 m 368 843 l 491 1050 l 661 1050 l 466 843 l 368 843 "},"×":{"x_min":199,"x_max":968,"ha":1157,"o":"m 583 481 l 901 799 l 968 731 l 649 413 l 968 96 l 901 31 l 583 347 l 265 31 l 199 96 l 517 413 l 199 731 l 265 799 l 583 481 "},"İ":{"x_min":124,"x_max":270,"ha":392,"o":"m 125 0 l 125 1003 l 267 1003 l 267 0 l 125 0 m 124 1133 l 124 1296 l 270 1296 l 270 1133 l 124 1133 "},"K":{"x_min":115,"x_max":1026,"ha":1029,"o":"m 115 0 l 115 1003 l 257 1003 l 257 487 l 842 1003 l 1024 1003 l 548 585 l 1026 0 l 859 0 l 452 501 l 257 333 l 257 0 l 115 0 "},"7":{"x_min":72,"x_max":823,"ha":926,"o":"m 263 0 q 434 483 323 268 q 702 848 546 699 l 72 848 l 72 978 l 823 978 l 823 843 q 563 440 661 650 q 426 0 464 230 l 263 0 "},"¨":{"x_min":117,"x_max":578,"ha":694,"o":"m 578 869 l 443 869 l 443 1023 l 578 1023 l 578 869 m 252 869 l 117 869 l 117 1023 l 252 1023 l 252 869 "},"Y":{"x_min":-21,"x_max":1016,"ha":993,"o":"m 428 0 l 428 417 l -21 1003 l 151 1003 l 497 536 l 846 1003 l 1016 1003 l 570 417 l 570 0 l 428 0 "},"E":{"x_min":115,"x_max":922,"ha":987,"o":"m 115 0 l 115 1003 l 912 1003 l 912 875 l 257 875 l 257 579 l 872 579 l 872 447 l 257 447 l 257 135 l 922 135 l 922 0 l 115 0 "},"Ô":{"x_min":60,"x_max":1159,"ha":1218,"o":"m 207 501 q 313 211 207 315 q 610 108 420 108 q 905 212 799 108 q 1012 501 1012 316 q 905 790 1012 686 q 608 895 798 895 q 313 790 419 895 q 207 501 207 686 m 60 501 q 208 886 60 743 q 610 1029 356 1029 q 1011 886 863 1029 q 1159 501 1159 743 q 1010 116 1159 258 q 608 -26 862 -26 q 207 116 355 -26 q 60 501 60 258 m 609 1233 l 491 1104 l 348 1104 l 533 1311 l 684 1311 l 870 1104 l 726 1104 l 609 1233 "},"Ï":{"x_min":-34,"x_max":427,"ha":392,"o":"m 125 0 l 125 1003 l 267 1003 l 267 0 l 125 0 m 427 1130 l 292 1130 l 292 1284 l 427 1284 l 427 1130 m 101 1130 l -34 1130 l -34 1284 l 101 1284 l 101 1130 "},"‹":{"x_min":97,"x_max":347,"ha":450,"o":"m 97 452 l 347 644 l 347 496 l 184 370 l 347 245 l 347 98 l 97 289 l 97 452 "},"±":{"x_min":172,"x_max":984,"ha":1157,"o":"m 984 116 l 984 20 l 172 20 l 172 116 l 984 116 m 626 809 l 626 578 l 984 578 l 984 484 l 626 484 l 626 253 l 530 253 l 530 484 l 172 484 l 172 578 l 530 578 l 530 809 l 626 809 "},"ì":{"x_min":-22,"x_max":271,"ha":350,"o":"m 109 0 l 109 743 l 243 743 l 243 0 l 109 0 m 172 843 l -22 1050 l 147 1050 l 271 843 l 172 843 "},"|":{"x_min":297,"x_max":399,"ha":694,"o":"m 399 1061 l 399 -328 l 297 -328 l 297 1061 l 399 1061 "},"§":{"x_min":57,"x_max":865,"ha":922,"o":"m 651 213 q 712 268 691 236 q 733 339 733 300 q 707 409 733 381 q 624 459 682 437 l 353 561 q 292 589 346 564 l 276 596 q 211 544 231 571 q 191 481 191 516 q 224 399 191 432 q 343 334 258 366 l 560 252 q 599 237 578 246 q 651 213 620 227 m 109 38 l 252 38 l 252 32 q 306 -71 252 -35 q 463 -108 360 -108 q 600 -79 555 -108 q 645 7 645 -50 q 635 51 645 31 q 608 84 625 71 q 479 138 575 107 q 396 167 425 156 q 246 227 306 201 q 164 268 187 253 q 79 349 102 309 q 57 449 57 388 q 93 567 57 518 q 204 647 129 615 q 154 714 170 679 q 139 797 139 750 q 226 964 139 900 q 458 1029 314 1029 q 697 964 613 1029 q 782 780 782 899 l 782 772 l 643 772 q 594 872 641 840 q 450 905 548 905 q 324 877 367 905 q 281 798 281 850 q 529 636 281 726 l 543 631 q 603 609 565 623 q 755 548 728 564 q 840 466 815 509 q 865 358 865 424 q 829 245 865 294 q 723 166 793 197 q 774 100 758 136 q 791 16 791 63 q 702 -165 791 -101 q 453 -230 614 -230 q 202 -160 291 -230 q 109 38 113 -91 "},"q":{"x_min":50,"x_max":871,"ha":973,"o":"m 735 371 q 662 566 735 494 q 462 638 589 638 q 263 566 335 638 q 192 371 192 495 q 263 175 192 246 q 462 105 335 105 q 662 176 589 105 q 735 371 735 247 m 871 -264 l 735 -264 l 735 110 q 608 13 677 44 q 449 -18 538 -18 q 160 89 270 -18 q 50 371 50 197 q 160 652 50 544 q 447 761 271 761 q 609 729 538 761 q 735 632 680 698 l 735 743 l 871 743 l 871 -264 "},"b":{"x_min":103,"x_max":922,"ha":973,"o":"m 237 368 q 310 173 237 244 q 509 102 383 102 q 707 172 635 102 q 780 368 780 243 q 707 563 780 492 q 509 635 635 635 q 310 563 383 635 q 237 368 237 491 m 103 1003 l 237 1003 l 237 629 q 364 725 294 694 q 523 757 433 757 q 811 649 700 757 q 922 368 922 541 q 811 86 922 194 q 524 -22 700 -22 q 363 10 435 -22 q 237 108 292 42 l 237 0 l 103 0 l 103 1003 "},"®":{"x_min":79,"x_max":1079,"ha":1157,"o":"m 571 717 l 484 717 l 484 529 l 574 529 q 684 550 651 529 q 718 619 718 571 q 683 693 718 670 q 571 717 648 717 m 590 786 q 768 746 709 786 q 828 630 828 707 q 794 530 828 570 q 698 478 760 490 l 825 220 l 705 220 l 589 461 l 484 461 l 484 220 l 377 220 l 377 786 l 590 786 m 1014 488 q 982 658 1014 579 q 890 798 950 737 q 748 894 827 861 q 579 927 669 927 q 413 895 491 927 q 276 803 335 863 q 178 658 212 739 q 144 492 144 577 q 176 329 144 407 q 271 188 209 250 q 412 92 332 126 q 575 59 491 59 q 743 91 663 59 q 887 186 822 124 q 981 323 948 246 q 1014 488 1014 401 m 577 993 q 771 955 680 993 q 934 844 863 917 q 1041 682 1004 773 q 1079 493 1079 592 q 1041 300 1079 390 q 933 141 1004 210 q 767 31 859 69 q 577 -7 675 -7 q 387 31 477 -7 q 224 142 296 69 q 116 304 153 214 q 79 493 79 394 q 118 684 79 592 q 230 851 157 777 q 387 957 298 921 q 577 993 475 993 "},"L":{"x_min":115,"x_max":870,"ha":890,"o":"m 115 0 l 115 1003 l 257 1003 l 257 135 l 870 135 l 870 0 l 115 0 "}," ":{"x_min":0,"x_max":0,"ha":463},"∑":{"x_min":17,"x_max":908,"ha":936,"o":"m 37 999 l 890 999 l 890 868 l 240 868 l 695 381 l 225 -137 l 908 -137 l 908 -267 l 17 -267 l 17 -165 l 508 377 l 37 878 l 37 999 "},"À":{"x_min":-8,"x_max":1063,"ha":1065,"o":"m 335 416 l 729 416 l 537 844 l 335 416 m -8 0 l 468 1003 l 616 1003 l 1063 0 l 915 0 l 787 286 l 275 286 l 141 0 l -8 0 m 540 1104 l 346 1311 l 515 1311 l 639 1104 l 540 1104 "},"+":{"x_min":172,"x_max":984,"ha":1157,"o":"m 626 828 l 626 461 l 984 461 l 984 367 l 626 367 l 626 0 l 530 0 l 530 367 l 172 367 l 172 461 l 530 461 l 530 828 l 626 828 "},"½":{"x_min":84,"x_max":1410,"ha":1463,"o":"m 918 0 l 918 9 q 955 114 918 69 q 1084 205 993 159 q 1170 245 1104 215 q 1269 298 1236 276 q 1305 337 1292 314 q 1318 386 1318 360 q 1276 462 1318 432 q 1170 492 1235 492 q 1062 459 1099 492 q 1022 363 1024 426 l 928 363 l 928 368 q 991 510 928 460 q 1170 561 1054 561 q 1345 513 1281 561 q 1410 385 1410 466 q 1400 332 1410 358 q 1370 284 1390 307 q 1229 194 1335 241 l 1226 193 q 1181 172 1210 185 q 1029 75 1060 117 l 1398 75 l 1398 0 l 918 0 m 292 -26 l 1063 1003 l 1171 1003 l 400 -26 l 292 -26 m 273 429 l 273 823 l 84 823 l 84 889 l 98 889 q 240 913 193 889 q 293 990 287 937 l 359 990 l 359 429 l 273 429 "},"Ë":{"x_min":115,"x_max":922,"ha":987,"o":"m 115 0 l 115 1003 l 912 1003 l 912 875 l 257 875 l 257 579 l 872 579 l 872 447 l 257 447 l 257 135 l 922 135 l 922 0 l 115 0 m 761 1130 l 626 1130 l 626 1284 l 761 1284 l 761 1130 m 435 1130 l 300 1130 l 300 1284 l 435 1284 l 435 1130 "},"'":{"x_min":61,"x_max":155,"ha":215,"o":"m 155 974 l 155 598 l 61 598 l 61 974 l 155 974 "},"Š":{"x_min":70,"x_max":961,"ha":1029,"o":"m 70 340 l 220 340 q 301 163 224 220 q 534 106 379 106 q 739 150 667 106 q 812 275 812 194 q 772 367 812 334 q 640 417 732 400 l 392 461 q 171 552 241 488 q 102 726 102 616 q 211 950 102 871 q 525 1029 321 1029 q 819 946 716 1029 q 925 711 922 864 l 783 711 q 710 852 775 806 q 514 898 644 898 q 319 857 386 898 q 252 738 252 816 q 290 652 252 682 q 429 602 328 622 l 649 559 q 892 465 823 526 q 961 287 961 403 q 847 56 961 138 q 526 -26 733 -26 q 187 66 302 -26 q 70 340 72 158 m 515 1182 l 632 1311 l 776 1311 l 590 1104 l 439 1104 l 254 1311 l 397 1311 l 515 1182 "},"˛":{"x_min":236,"x_max":458,"ha":694,"o":"m 423 0 q 355 -74 376 -40 q 335 -144 335 -109 q 348 -186 335 -173 q 394 -199 362 -199 l 458 -199 l 458 -305 l 393 -305 q 274 -275 312 -305 q 236 -182 236 -245 q 267 -94 236 -138 q 364 0 298 -49 l 423 0 "},"ð":{"x_min":50,"x_max":881,"ha":932,"o":"m 623 670 q 569 748 598 709 q 504 826 539 787 l 248 724 l 221 791 l 450 886 q 413 923 433 904 q 367 965 393 942 l 442 1042 q 504 989 473 1017 q 570 926 535 961 l 755 1003 l 783 933 l 624 870 q 819 589 757 718 q 881 339 881 461 q 768 73 881 172 q 466 -26 656 -26 q 162 73 275 -26 q 50 339 50 172 q 159 598 50 500 q 448 697 268 697 q 538 690 495 697 q 623 670 582 684 m 190 339 q 263 164 190 228 q 465 100 337 100 q 667 164 593 100 q 741 339 741 228 q 667 514 741 450 q 465 579 593 579 q 264 514 338 579 q 190 339 190 449 "},"ş":{"x_min":43,"x_max":779,"ha":821,"o":"m 43 242 l 191 242 q 256 131 200 170 q 408 93 312 93 q 579 122 518 93 q 640 205 640 152 q 611 264 640 244 q 504 297 583 284 l 339 326 q 131 396 185 352 q 78 530 78 441 q 163 707 78 646 q 412 768 248 768 q 663 705 576 768 q 751 524 751 642 l 751 519 l 620 519 q 560 620 613 587 q 405 654 507 654 q 263 628 312 654 q 214 553 214 602 q 243 489 214 511 q 380 450 273 468 l 541 423 q 727 354 675 401 q 779 213 779 307 q 683 36 779 98 q 408 -26 587 -26 q 145 39 235 -26 q 43 242 55 105 m 234 -273 l 260 -215 q 334 -233 302 -227 q 390 -240 366 -240 q 452 -226 431 -240 q 474 -187 474 -213 q 458 -150 474 -163 q 414 -138 443 -138 q 386 -140 400 -138 q 360 -148 373 -143 l 330 -125 l 399 0 l 457 0 l 409 -86 q 436 -79 423 -81 q 460 -77 449 -77 q 556 -107 521 -77 q 591 -189 591 -137 q 549 -278 591 -247 q 428 -309 508 -309 q 331 -300 379 -309 q 234 -273 283 -291 "},"ı":{"x_min":109,"x_max":243,"ha":350,"o":"m 109 0 l 109 743 l 243 743 l 243 0 l 109 0 "},"Ć":{"x_min":60,"x_max":1117,"ha":1166,"o":"m 1117 388 q 958 86 1096 199 q 608 -26 820 -26 q 207 116 355 -26 q 60 501 60 258 q 208 886 60 743 q 609 1029 356 1029 q 953 921 817 1029 q 1105 638 1089 813 l 958 638 q 844 826 936 758 q 608 895 751 895 q 313 790 419 895 q 207 501 207 686 q 313 212 207 316 q 609 108 419 108 q 853 184 755 108 q 970 388 951 260 l 1117 388 m 522 1104 l 645 1311 l 815 1311 l 620 1104 l 522 1104 "},"ä":{"x_min":69,"x_max":905,"ha":932,"o":"m 669 115 q 538 16 618 50 q 356 -18 458 -18 q 144 40 219 -18 q 69 205 69 99 q 95 308 69 263 q 176 385 122 353 q 252 412 202 402 q 414 436 302 423 q 471 442 434 438 q 662 538 662 460 q 616 624 662 597 q 469 651 571 651 q 300 616 353 651 q 242 505 247 581 l 102 504 q 198 701 108 635 q 459 768 288 768 q 723 711 646 768 q 800 519 800 655 l 800 220 q 814 134 800 158 q 866 111 829 111 q 884 112 874 111 q 905 115 894 113 l 905 6 q 852 1 878 3 q 801 0 825 0 q 710 27 742 0 q 669 115 679 54 m 665 381 q 583 352 637 365 q 439 330 529 340 q 255 288 294 313 q 216 210 216 263 q 259 126 216 156 q 378 96 302 96 q 583 146 502 96 q 665 270 665 197 l 665 381 m 696 869 l 561 869 l 561 1023 l 696 1023 l 696 869 m 370 869 l 235 869 l 235 1023 l 370 1023 l 370 869 "},"¹":{"x_min":91,"x_max":378,"ha":611,"o":"m 288 389 l 288 813 l 91 813 l 91 883 l 106 883 q 253 908 205 883 q 308 991 302 934 l 378 991 l 378 389 l 288 389 "},"£":{"x_min":58.28125,"x_max":893.140625,"ha":926,"o":"m 58 436 l 58 529 l 153 529 q 118 617 130 576 q 107 694 107 659 q 121 778 107 737 q 166 859 136 820 q 309 967 222 931 q 518 1003 396 1003 q 784 918 690 1003 q 885 675 879 834 l 747 675 q 680 831 739 778 q 513 885 621 885 q 328 826 400 885 q 257 677 257 768 q 267 611 257 648 q 298 529 278 573 l 609 529 l 609 436 l 340 436 q 359 383 353 408 q 366 335 366 358 q 337 229 366 280 q 248 127 308 178 q 326 149 290 142 q 394 156 362 156 q 515 135 434 156 q 638 114 596 114 q 748 130 696 114 q 846 181 800 147 l 893 54 q 796 -4 853 15 q 667 -25 739 -25 q 492 3 607 -25 q 322 31 377 31 q 229 17 274 31 q 137 -26 183 3 l 58 95 q 176 172 133 116 q 220 304 220 227 q 211 364 220 332 q 187 436 203 397 l 58 436 "},"W":{"x_min":4,"x_max":1573,"ha":1579,"o":"m 341 0 l 4 1003 l 153 1003 l 433 124 l 706 1003 l 870 1003 l 1144 124 l 1423 1003 l 1573 1003 l 1236 0 l 1067 0 l 787 865 l 509 0 l 341 0 "},"Ğ":{"x_min":60,"x_max":1077,"ha":1196,"o":"m 923 686 q 805 840 894 786 q 580 895 716 895 q 304 789 405 895 q 203 501 203 683 q 304 214 203 320 q 576 108 405 108 q 831 188 731 108 q 945 405 931 269 l 627 405 l 627 537 l 1077 537 l 1077 0 l 978 0 l 963 168 q 806 23 905 73 q 575 -26 706 -26 q 201 118 342 -26 q 60 501 60 262 q 203 887 60 745 q 591 1029 346 1029 q 918 932 785 1029 q 1067 686 1052 835 l 923 686 m 359 1307 l 453 1307 q 492 1237 456 1260 q 599 1214 529 1214 q 705 1237 668 1214 q 745 1307 741 1260 l 839 1307 q 769 1157 828 1206 q 599 1108 710 1108 q 428 1157 487 1108 q 359 1307 369 1206 "},"v":{"x_min":-14,"x_max":804,"ha":790,"o":"m 323 0 l -14 743 l 147 743 l 399 116 l 646 743 l 804 743 l 473 0 l 323 0 "},">":{"x_min":179,"x_max":978,"ha":1157,"o":"m 978 458 l 978 371 l 179 43 l 179 147 l 837 413 l 179 682 l 179 786 l 978 458 "},"û":{"x_min":98,"x_max":820,"ha":917,"o":"m 820 743 l 820 0 l 687 0 l 687 125 q 550 15 625 51 q 380 -21 475 -21 q 250 1 307 -21 q 156 65 193 23 q 111 152 125 101 q 98 316 98 203 l 98 743 l 233 743 l 233 311 q 274 143 233 193 q 410 94 315 94 q 609 168 532 94 q 686 365 686 243 l 686 743 l 820 743 m 458 972 l 340 843 l 197 843 l 382 1050 l 533 1050 l 719 843 l 575 843 l 458 972 "},"Ð":{"x_min":0,"x_max":1135,"ha":1194,"o":"m 607 878 l 264 878 l 264 579 l 607 579 l 607 489 l 264 489 l 264 126 l 607 126 q 769 142 707 126 q 874 195 831 159 q 957 322 926 240 q 988 502 988 404 q 957 682 988 601 q 874 808 926 763 q 769 861 831 845 q 607 878 707 878 m 563 1003 q 820 981 737 1003 q 968 909 903 960 q 1092 741 1050 845 q 1135 501 1135 638 q 1092 260 1135 364 q 968 92 1050 157 q 820 21 903 42 q 563 0 737 0 l 122 0 l 122 489 l 0 489 l 0 579 l 122 579 l 122 1003 l 563 1003 "},"r":{"x_min":98,"x_max":565,"ha":554,"o":"m 98 0 l 98 743 l 231 743 l 231 617 q 352 729 282 690 q 504 768 422 768 q 538 764 525 768 q 565 755 552 761 l 565 613 q 514 625 537 621 q 468 629 491 629 q 301 553 369 629 q 233 363 233 477 l 233 0 l 98 0 "},"Č":{"x_min":60,"x_max":1117,"ha":1166,"o":"m 1117 388 q 958 86 1096 199 q 608 -26 820 -26 q 207 116 355 -26 q 60 501 60 258 q 208 886 60 743 q 609 1029 356 1029 q 953 921 817 1029 q 1105 638 1089 813 l 958 638 q 844 826 936 758 q 608 895 751 895 q 313 790 419 895 q 207 501 207 686 q 313 212 207 316 q 609 108 419 108 q 853 184 755 108 q 970 388 951 260 l 1117 388 m 619 1182 l 736 1311 l 880 1311 l 694 1104 l 543 1104 l 358 1311 l 501 1311 l 619 1182 "},"x":{"x_min":-5,"x_max":834,"ha":823,"o":"m -5 0 l 325 377 l 27 743 l 210 743 l 419 459 l 639 743 l 820 743 l 501 377 l 834 0 l 646 0 l 419 290 l 171 0 l -5 0 "},"è":{"x_min":58,"x_max":872,"ha":932,"o":"m 204 440 l 728 440 q 642 589 712 535 q 466 643 573 643 q 290 589 360 643 q 204 440 221 535 m 200 344 l 200 338 q 274 166 200 233 q 466 100 348 100 q 617 134 554 100 q 702 231 679 169 l 860 231 q 716 41 819 109 q 466 -26 613 -26 q 169 81 280 -26 q 58 370 58 189 q 169 659 58 551 q 466 768 280 768 q 764 662 656 768 q 872 370 872 556 l 872 344 l 200 344 m 484 843 l 290 1050 l 459 1050 l 583 843 l 484 843 "},"Ø":{"x_min":60,"x_max":1160.359375,"ha":1218,"o":"m 285 245 l 879 813 q 766 874 834 853 q 608 895 698 895 q 313 790 419 895 q 207 501 207 686 q 227 357 207 423 q 285 245 247 291 m 932 757 l 338 192 q 449 126 381 148 q 608 105 517 105 q 904 210 796 105 q 1012 501 1012 316 q 991 641 1012 576 q 932 757 971 706 m 183 144 q 91 306 123 216 q 60 501 60 396 q 208 886 60 743 q 610 1029 356 1029 q 827 998 732 1029 q 982 909 921 968 l 1107 1031 l 1160 978 l 1035 857 q 1127 698 1096 790 q 1159 500 1159 607 q 1010 116 1159 258 q 608 -26 862 -26 q 397 3 489 -26 q 236 92 305 33 l 112 -26 l 61 27 l 183 144 "},"÷":{"x_min":172,"x_max":986,"ha":1157,"o":"m 579 249 q 638 223 613 249 q 664 164 664 198 q 639 103 664 128 q 579 79 614 79 q 518 103 542 79 q 494 164 494 127 q 519 223 494 198 q 579 249 544 249 m 986 461 l 986 367 l 172 367 l 172 461 l 986 461 m 579 749 q 638 723 613 749 q 664 663 664 698 q 639 603 664 628 q 579 579 614 579 q 518 603 543 579 q 494 663 494 628 q 519 723 494 698 q 579 749 544 749 "},"h":{"x_min":98,"x_max":820,"ha":917,"o":"m 98 0 l 98 1003 l 231 1003 l 231 614 q 368 725 292 689 q 538 762 444 762 q 668 740 611 762 q 761 677 725 719 q 806 589 793 640 q 820 426 820 538 l 820 0 l 686 0 l 686 431 q 644 598 686 549 q 508 648 603 648 q 309 573 386 648 q 233 377 233 498 l 233 0 l 98 0 "},".":{"x_min":147,"x_max":315,"ha":463,"o":"m 147 0 l 147 167 l 315 167 l 315 0 l 147 0 "},"f":{"x_min":24,"x_max":471,"ha":453,"o":"m 154 0 l 154 626 l 24 626 l 24 743 l 154 743 l 154 820 q 200 959 154 916 q 347 1003 246 1003 q 413 1000 383 1003 q 471 991 443 997 l 471 871 q 424 877 447 875 q 382 880 402 880 q 309 861 329 880 q 289 792 289 842 l 289 743 l 471 743 l 471 626 l 289 626 l 289 0 l 154 0 "},"“":{"x_min":131,"x_max":568,"ha":685,"o":"m 568 799 l 568 632 l 400 632 l 400 799 q 437 944 400 893 q 568 1029 475 995 l 568 938 q 505 894 524 922 q 486 819 486 865 q 486 809 486 816 q 487 799 487 802 l 568 799 m 297 799 l 297 632 l 131 632 l 131 799 q 167 944 131 893 q 297 1029 204 995 l 297 938 q 234 894 254 922 q 215 819 215 865 q 215 809 215 816 q 216 799 216 802 l 297 799 "},"A":{"x_min":-8,"x_max":1063,"ha":1065,"o":"m 335 416 l 729 416 l 537 844 l 335 416 m -8 0 l 468 1003 l 616 1003 l 1063 0 l 915 0 l 787 286 l 275 286 l 141 0 l -8 0 "},"O":{"x_min":60,"x_max":1159,"ha":1218,"o":"m 207 501 q 313 211 207 315 q 610 108 420 108 q 905 212 799 108 q 1012 501 1012 316 q 905 790 1012 686 q 608 895 798 895 q 313 790 419 895 q 207 501 207 686 m 60 501 q 208 886 60 743 q 610 1029 356 1029 q 1011 886 863 1029 q 1159 501 1159 743 q 1010 116 1159 258 q 608 -26 862 -26 q 207 116 355 -26 q 60 501 60 258 "},"π":{"x_min":-21,"x_max":810,"ha":818,"o":"m 786 619 l 662 619 l 591 288 q 576 207 581 238 q 571 161 571 176 q 586 105 571 122 q 640 89 602 89 q 667 90 651 89 q 708 95 683 92 l 687 0 q 648 -8 667 -5 q 612 -11 630 -11 q 491 23 532 -11 q 450 126 450 58 q 457 206 450 157 q 487 364 464 254 l 541 619 l 320 619 l 189 0 l 66 0 l 198 619 l 170 619 q 113 597 134 619 q 87 528 93 575 l -21 528 q 46 683 -2 641 q 206 726 94 726 l 810 726 l 786 619 "},"‘":{"x_min":131,"x_max":297,"ha":418,"o":"m 297 799 l 297 632 l 131 632 l 131 799 q 167 944 131 893 q 297 1029 204 995 l 297 938 q 234 894 254 922 q 215 819 215 865 q 215 809 215 816 q 216 799 216 802 l 297 799 "},"3":{"x_min":69,"x_max":862,"ha":926,"o":"m 69 312 l 209 312 q 272 151 210 205 q 455 97 334 97 q 643 145 575 97 q 712 278 712 194 q 643 408 712 365 q 435 452 575 452 q 399 451 411 452 q 376 450 387 451 l 376 565 q 398 564 386 564 q 430 564 409 564 q 613 600 553 564 q 674 711 674 637 q 617 830 674 786 q 463 875 560 875 q 294 821 354 875 q 234 673 234 768 l 234 668 l 90 668 l 90 677 q 186 917 90 832 q 460 1003 283 1003 q 721 927 622 1003 q 820 729 820 851 q 774 593 820 647 q 640 517 729 539 q 805 448 748 506 q 862 290 862 389 q 754 59 862 144 q 460 -26 646 -26 q 165 55 262 -26 q 69 305 69 137 l 69 312 "},"9":{"x_min":52,"x_max":875,"ha":926,"o":"m 707 664 q 638 813 707 756 q 458 871 570 871 q 266 813 339 871 q 194 661 194 755 q 264 507 194 565 q 452 449 335 449 q 635 509 564 449 q 707 664 707 569 m 724 482 q 586 366 665 404 q 404 329 507 329 q 149 418 246 329 q 52 651 52 507 q 78 788 52 725 q 155 898 104 851 q 286 976 211 949 q 449 1003 361 1003 q 766 879 658 1003 q 875 516 875 756 q 760 113 875 255 q 436 -28 646 -28 q 204 37 293 -28 q 96 220 114 103 l 236 220 q 307 125 256 157 q 437 93 358 93 q 652 189 580 93 q 724 476 724 285 l 724 482 "},"l":{"x_min":109,"x_max":243,"ha":350,"o":"m 109 0 l 109 1003 l 243 1003 l 243 0 l 109 0 "},"":{"x_min":24,"x_max":707,"ha":817,"o":"m 154 0 l 154 626 l 24 626 l 24 743 l 154 743 l 154 820 q 200 959 154 916 q 347 1003 246 1003 q 413 1000 383 1003 q 471 991 443 997 l 471 871 q 424 877 447 875 q 382 880 402 880 q 309 861 329 880 q 289 792 289 842 l 289 743 l 471 743 l 471 626 l 289 626 l 289 0 l 154 0 m 573 0 l 573 743 l 707 743 l 707 0 l 573 0 m 707 840 l 573 840 l 573 1003 l 707 1003 l 707 840 "},"4":{"x_min":54,"x_max":873,"ha":926,"o":"m 564 0 l 564 245 l 54 245 l 54 377 l 577 990 l 708 990 l 708 368 l 873 368 l 873 245 l 708 245 l 708 0 l 564 0 m 191 368 l 564 368 l 572 841 l 191 368 "},"Ü":{"x_min":113,"x_max":999,"ha":1117,"o":"m 999 1003 l 999 373 q 886 75 999 177 q 555 -26 773 -26 q 225 75 338 -26 q 113 373 113 177 l 113 1003 l 255 1003 l 255 433 q 328 188 255 267 q 555 110 401 110 q 783 188 710 110 q 857 433 857 266 l 857 1003 l 999 1003 m 789 1130 l 654 1130 l 654 1284 l 789 1284 l 789 1130 m 463 1130 l 328 1130 l 328 1284 l 463 1284 l 463 1130 "},"à":{"x_min":69,"x_max":905,"ha":932,"o":"m 669 115 q 538 16 618 50 q 356 -18 458 -18 q 144 40 219 -18 q 69 205 69 99 q 95 308 69 263 q 176 385 122 353 q 252 412 202 402 q 414 436 302 423 q 471 442 434 438 q 662 538 662 460 q 616 624 662 597 q 469 651 571 651 q 300 616 353 651 q 242 505 247 581 l 102 504 q 198 701 108 635 q 459 768 288 768 q 723 711 646 768 q 800 519 800 655 l 800 220 q 814 134 800 158 q 866 111 829 111 q 884 112 874 111 q 905 115 894 113 l 905 6 q 852 1 878 3 q 801 0 825 0 q 710 27 742 0 q 669 115 679 54 m 665 381 q 583 352 637 365 q 439 330 529 340 q 255 288 294 313 q 216 210 216 263 q 259 126 216 156 q 378 96 302 96 q 583 146 502 96 q 665 270 665 197 l 665 381 m 462 843 l 268 1050 l 437 1050 l 561 843 l 462 843 "},"ó":{"x_min":50,"x_max":881,"ha":932,"o":"m 190 371 q 264 172 190 245 q 465 100 338 100 q 667 172 593 100 q 741 371 741 245 q 667 570 741 497 q 465 643 593 643 q 264 569 338 643 q 190 371 190 496 m 50 371 q 163 659 50 551 q 466 768 276 768 q 768 659 655 768 q 881 371 881 551 q 768 82 881 190 q 466 -26 655 -26 q 163 82 276 -26 q 50 371 50 190 m 369 843 l 492 1050 l 662 1050 l 467 843 l 369 843 "}}}
